#N canvas 0 23 1280 755 10;
#X obj 636 599 tgl 15 0 empty empty empty 17 7 0 10 -262144 -1 -1 1
1;
#X msg 636 625 \; pd dsp \$1;
#X obj -23 11 bng 15 250 50 0 empty empty Open_File 17 7 0 10 -4034
-1 -1;
#X obj -23 30 openpanel;
#X obj -23 77 soundfiler;
#X floatatom 8 99 10 0 0 0 - - -;
#X floatatom 14 173 10 0 0 0 - - -;
#N canvas 0 22 450 278 (subpatch) 0;
#X array L1 1.91713e+06 float 2;
#X coords 0 1 1.91713e+06 -1 200 140 1 0 0;
#X restore -130 583 graph;
#N canvas 0 22 450 278 (subpatch) 0;
#X array R1 1.91713e+06 float 2;
#X coords 0 1 1.91713e+06 -1 200 140 1 0 0;
#X restore -131 742 graph;
#X obj -22 293 phasor~;
#X obj -22 334 *~;
#X obj 8 126 s sampleSize;
#X obj 34 317 r sampleSize;
#X msg -23 52 read -resize \$1 L1 R1;
#X obj -22 406 tabread~ L1;
#X obj 10 377 tabread~ R1;
#X obj 30 257 hsl 128 15 -1 1 0 0 empty empty empty -2 -8 0 10 -262144
-1 -1 6477 1;
#X text 64 271 Dir/Speed;
#X obj 116 220 f;
#X obj 116 196 bng 15 250 50 0 empty empty empty 17 7 0 10 -204786
-1 -1;
#X text 84 176 Default Speed;
#N canvas 0 22 450 278 (subpatch) 0;
#X array L2 588546 float 2;
#X coords 0 1 588546 -1 200 140 1 0 0;
#X restore 225 582 graph;
#N canvas 0 22 450 278 (subpatch) 0;
#X array R2 588546 float 2;
#X coords 0 1 588546 -1 200 140 1 0 0;
#X restore 224 741 graph;
#X obj 328 370 tabread~ L2;
#X obj 362 394 tabread~ R2;
#X obj 617 23 tgl 40 0 empty loadon Jump_Between_Files -10 -10 0 10
-4034 -1 -1 0 1;
#X obj -47 524 *~;
#X obj -18 524 *~;
#X obj 326 10 bng 15 250 50 0 empty empty Open_File 17 7 0 10 -4034
-1 -1;
#X obj 326 29 openpanel;
#X obj 326 76 soundfiler;
#X floatatom 357 98 10 0 0 0 - - -;
#X floatatom 363 172 10 0 0 0 - - -;
#X obj 327 292 phasor~;
#X obj 328 333 *~;
#X obj 379 256 hsl 128 15 -1 1 0 0 empty empty empty -2 -8 0 10 -262144
-1 -1 6615 1;
#X text 413 270 Dir/Speed;
#X obj 465 219 f;
#X obj 465 195 bng 15 250 50 0 empty empty empty 17 7 0 10 -204786
-1 -1;
#X text 433 175 Default Speed;
#X obj 356 125 s sampleSize2;
#X obj 383 316 r sampleSize2;
#X obj 296 523 *~;
#X obj 325 523 *~;
#X msg 326 51 read -resize \$1 L2 R2;
#X floatatom 673 149 5 0 0 0 - - -;
#X obj -131 334 metro 50;
#X obj -131 351 snapshot~;
#X floatatom -131 368 10 0 0 0 - - -;
#X obj -127 550 hsl 195 15 0 1 0 0 empty empty empty -2 -8 0 10 -262144
-1 -1 13928 1;
#X obj -116 389 r sampleSize;
#X obj -131 415 /;
#X obj 65 76 bng 15 250 50 0 empty empty empty 17 7 0 10 -262144 -1
-1;
#X obj 424 76 bng 15 250 50 0 empty empty empty 17 7 0 10 -262144 -1
-1;
#X obj 225 325 metro 50;
#X obj 225 350 snapshot~;
#X floatatom 225 378 10 0 0 0 - - -;
#X obj 228 549 hsl 195 15 0 1 0 0 empty empty empty -2 -8 0 10 -262144
-1 -1 680 1;
#X obj 225 430 /;
#X obj 240 403 r sampleSize2;
#X obj 994 11 bng 15 250 50 0 empty empty Open_File 17 7 0 10 -4034
-1 -1;
#X obj 994 30 openpanel;
#X obj 994 77 soundfiler;
#X floatatom 1025 99 10 0 0 0 - - -;
#X floatatom 1031 173 10 0 0 0 - - -;
#N canvas 0 22 450 278 (subpatch) 0;
#X array L3 1.14203e+06 float 2;
#X coords 0 1 1.14203e+06 -1 200 140 1 0 0;
#X restore 905 581 graph;
#N canvas 0 22 450 278 (subpatch) 0;
#X array R3 1.14203e+06 float 2;
#X coords 0 1 1.14203e+06 -1 200 140 1 0 0;
#X restore 904 740 graph;
#X obj 995 293 phasor~;
#X obj 652 571 dac~;
#X obj 995 334 *~;
#X obj 644 541 *~;
#X obj 672 540 *~;
#X obj 644 462 vsl 50 75 0 1 0 0 empty empty Volume 0 -9 0 10 -162280
-204786 -66577 4900 1;
#X obj 1047 257 hsl 128 15 -1 1 0 0 empty empty empty -2 -8 0 10 -262144
-1 -1 5347 1;
#X text 1102 361 Dir/Speed;
#X obj 1115 235 f;
#X obj 1115 211 bng 15 250 50 0 empty empty empty 17 7 0 10 -204786
-1 -1;
#X text 1083 191 Default Speed;
#N canvas 0 22 450 278 (subpatch) 0;
#X array L4 124720 float 2;
#X coords 0 1 124720 -1 200 140 1 0 0;
#X restore 1249 583 graph;
#N canvas 0 22 450 278 (subpatch) 0;
#X array R4 124720 float 2;
#X coords 0 1 124720 -1 200 140 1 0 0;
#X restore 1248 742 graph;
#X obj 987 515 *~;
#X obj 1016 515 *~;
#X obj 1351 22 bng 15 250 50 0 empty empty Open_File 17 7 0 10 -4034
-1 -1;
#X obj 1351 41 openpanel;
#X obj 1351 88 soundfiler;
#X floatatom 1381 113 10 0 0 0 - - -;
#X floatatom 1388 184 10 0 0 0 - - -;
#X obj 1352 304 phasor~;
#X obj 1353 345 *~;
#X obj 1404 268 hsl 128 15 -1 1 0 0 empty empty empty -2 -8 0 10 -262144
-1 -1 5144 1;
#X text 1438 282 Dir/Speed;
#X obj 1489 251 f;
#X obj 1489 227 bng 15 250 50 0 empty empty empty 17 7 0 10 -204786
-1 -1;
#X text 1457 207 Default Speed;
#X obj 1353 527 *~;
#X obj 1377 527 *~;
#X obj 906 320 metro 50;
#X obj 906 350 snapshot~;
#X floatatom 906 391 10 0 0 0 - - -;
#X obj 908 548 hsl 195 15 0 1 0 0 empty empty empty -2 -8 0 10 -262144
-1 -1 16582 1;
#X obj 906 439 /;
#X obj 1064 80 bng 15 250 50 0 empty empty empty 17 7 0 10 -262144
-1 -1;
#X obj 1434 90 bng 15 250 50 0 empty empty empty 17 7 0 10 -262144
-1 -1;
#X obj 1250 337 metro 50;
#X obj 1250 362 snapshot~;
#X floatatom 1250 393 10 0 0 0 - - -;
#X obj 1252 550 hsl 195 15 0 1 0 0 empty empty empty -2 -8 0 10 -262144
-1 -1 8414 1;
#X obj 1250 445 /;
#X obj 1025 126 s sampleSize3;
#X obj 1051 317 r sampleSize3;
#X obj 921 413 r sampleSize3;
#X obj 1381 137 s sampleSize4;
#X obj 1408 328 r sampleSize4;
#X obj 1265 418 r sampleSize4;
#X msg 994 52 read -resize \$1 L3 R3;
#X obj 1019 405 tabread~ L3;
#X obj 1051 376 tabread~ R3;
#X obj 1353 382 tabread~ L4;
#X obj 1377 407 tabread~ R4;
#X msg 1351 63 read -resize \$1 L4 R4;
#X obj 617 183 counter 0 0 3;
#X obj 738 391 tgl 15 0 empty empty empty 17 7 0 10 -204800 -1 -1 0
1;
#X obj 738 407 tgl 15 0 empty empty empty 17 7 0 10 -204800 -1 -1 0
1;
#X obj 738 425 tgl 15 0 empty empty empty 17 7 0 10 -204800 -1 -1 0
1;
#X obj 737 442 tgl 15 0 empty empty empty 17 7 0 10 -204800 -1 -1 0
1;
#X obj 32 472 select 0;
#X obj 617 238 s currentFile;
#X obj 32 447 r currentFile;
#X obj 364 436 r currentFile;
#X obj 364 461 select 1;
#X obj 1041 453 r currentFile;
#X obj 1041 478 select 2;
#X obj 1389 448 r currentFile;
#X obj 1389 473 select 3;
#X obj 617 200 hradio 30 1 0 4 empty empty empty 0 -8 0 10 -262144
-1 -1 0;
#X obj -110 174 bng 15 250 50 0 empty empty empty 17 7 0 10 -262130
-1 -1;
#X floatatom -110 241 10 0 0 0 - - -;
#X obj -110 223 / 1000;
#X obj 234 171 bng 15 250 50 0 empty empty empty 17 7 0 10 -262130
-1 -1;
#X floatatom 235 239 10 0 0 0 - - -;
#X obj 235 222 / 1000;
#X obj 908 173 bng 15 250 50 0 empty empty empty 17 7 0 10 -262130
-1 -1;
#X floatatom 908 241 10 0 0 0 - - -;
#X obj 908 223 / 1000;
#X obj 1256 184 bng 15 250 50 0 empty empty empty 17 7 0 10 -262130
-1 -1;
#X floatatom 1254 251 10 0 0 0 - - -;
#X obj 1256 234 / 1000;
#X obj 617 263 r currentFile;
#X obj 617 350 s rndSpeed;
#X obj -110 147 r rndSpeed;
#X obj 235 154 r rndSpeed;
#X obj 908 157 r rndSpeed;
#X obj 1256 166 r rndSpeed;
#X obj 650 301 tgl 30 0 empty loadon Randomize_Speeds_on_File_Switch
-10 -10 0 10 -262130 -1 -1 0 1;
#X obj 617 333 spigot;
#X obj -110 206 - 1000;
#X obj -110 189 random 2000;
#X obj 235 187 random 2000;
#X obj 235 205 - 1000;
#X obj 908 188 random 2000;
#X obj 908 206 - 1000;
#X obj 1256 199 random 2000;
#X obj 1256 216 - 1000;
#X obj 730 90 tgl 25 0 empty empty Rnd_Tempo_Jumps -10 -10 0 10 -232576
-1 -1 0 1;
#X obj 730 115 metro 1000;
#X floatatom 758 99 5 100 10000 0 - - -;
#X obj 635 686 loadbang;
#X msg 635 703 1;
#X obj 906 303 r loadon;
#X obj 635 720 s loadon;
#X obj 1250 320 r loadon;
#X obj 225 308 r loadon;
#X obj -131 317 r loadon;
#X obj 708 418 bng 25 250 50 0 empty empty MUTE 0 -10 0 10 -258113
-1 -1;
#X msg 709 443 0;
#X obj 772 401 bng 25 250 50 0 empty empty Randomize_Once 0 -10 0 10
-262130 -1 -1;
#X obj 617 166 metro 200;
#X msg 757 444 0.5;
#X obj 757 428 loadbang;
#X obj -22 149 expr 44100 / $f1;
#X obj 327 148 expr 44100 / $f1;
#X obj 995 149 expr 44100 / $f1;
#X obj 1352 160 expr 44100 / $f1;
#X obj 853 109 random 300;
#X obj 78 600 hsl 75 15 0 1 0 0 empty empty empty -2 -8 0 10 -258113
-1 -1 3500 1;
#X obj 83 634 *~;
#X obj 112 634 *~;
#X obj 438 600 hsl 75 15 0 1 0 0 empty empty empty -2 -8 0 10 -258113
-1 -1 0 1;
#X obj 443 634 *~;
#X obj 472 634 *~;
#X obj 1117 598 hsl 75 15 0 1 0 0 empty empty empty -2 -8 0 10 -258113
-1 -1 4300 1;
#X obj 1122 632 *~;
#X obj 1151 632 *~;
#X obj 1457 598 hsl 75 15 0 1 0 0 empty empty empty -2 -8 0 10 -258113
-1 -1 3600 1;
#X obj 1462 632 *~;
#X obj 1491 632 *~;
#X connect 0 0 1 0;
#X connect 2 0 3 0;
#X connect 3 0 13 0;
#X connect 4 0 5 0;
#X connect 4 0 179 0;
#X connect 5 0 11 0;
#X connect 6 0 18 1;
#X connect 9 0 10 0;
#X connect 10 0 14 0;
#X connect 10 0 15 0;
#X connect 10 0 47 0;
#X connect 12 0 10 1;
#X connect 13 0 4 0;
#X connect 14 0 26 0;
#X connect 15 0 27 0;
#X connect 16 0 9 0;
#X connect 18 0 16 0;
#X connect 19 0 18 0;
#X connect 23 0 42 0;
#X connect 24 0 43 0;
#X connect 25 0 176 0;
#X connect 26 0 185 0;
#X connect 27 0 186 0;
#X connect 28 0 29 0;
#X connect 29 0 44 0;
#X connect 30 0 31 0;
#X connect 30 0 180 0;
#X connect 31 0 40 0;
#X connect 32 0 37 1;
#X connect 33 0 34 0;
#X connect 34 0 23 0;
#X connect 34 0 24 0;
#X connect 34 0 55 0;
#X connect 35 0 33 0;
#X connect 37 0 35 0;
#X connect 38 0 37 0;
#X connect 41 0 34 1;
#X connect 42 0 188 0;
#X connect 43 0 189 0;
#X connect 44 0 30 0;
#X connect 45 0 176 1;
#X connect 46 0 47 0;
#X connect 47 0 48 0;
#X connect 48 0 51 0;
#X connect 50 0 51 1;
#X connect 51 0 49 0;
#X connect 52 0 5 0;
#X connect 53 0 31 0;
#X connect 54 0 55 0;
#X connect 55 0 56 0;
#X connect 56 0 58 0;
#X connect 58 0 57 0;
#X connect 59 0 58 1;
#X connect 60 0 61 0;
#X connect 61 0 114 0;
#X connect 62 0 63 0;
#X connect 62 0 181 0;
#X connect 63 0 108 0;
#X connect 64 0 75 1;
#X connect 67 0 69 0;
#X connect 69 0 97 0;
#X connect 69 0 115 0;
#X connect 69 0 116 0;
#X connect 70 0 68 0;
#X connect 71 0 68 1;
#X connect 72 0 70 1;
#X connect 72 0 71 1;
#X connect 73 0 67 0;
#X connect 75 0 73 0;
#X connect 76 0 75 0;
#X connect 80 0 191 0;
#X connect 81 0 192 0;
#X connect 82 0 83 0;
#X connect 83 0 119 0;
#X connect 84 0 85 0;
#X connect 84 0 182 0;
#X connect 85 0 111 0;
#X connect 86 0 91 1;
#X connect 87 0 88 0;
#X connect 88 0 104 0;
#X connect 88 0 117 0;
#X connect 88 0 118 0;
#X connect 89 0 87 0;
#X connect 91 0 89 0;
#X connect 92 0 91 0;
#X connect 94 0 194 0;
#X connect 95 0 195 0;
#X connect 96 0 97 0;
#X connect 97 0 98 0;
#X connect 98 0 100 0;
#X connect 100 0 99 0;
#X connect 101 0 63 0;
#X connect 102 0 85 0;
#X connect 103 0 104 0;
#X connect 104 0 105 0;
#X connect 105 0 107 0;
#X connect 107 0 106 0;
#X connect 109 0 69 1;
#X connect 110 0 100 1;
#X connect 112 0 88 1;
#X connect 113 0 107 1;
#X connect 114 0 62 0;
#X connect 115 0 80 0;
#X connect 116 0 81 0;
#X connect 117 0 94 0;
#X connect 118 0 95 0;
#X connect 119 0 84 0;
#X connect 120 0 134 0;
#X connect 121 0 185 1;
#X connect 121 0 186 1;
#X connect 122 0 188 1;
#X connect 122 0 189 1;
#X connect 123 0 191 1;
#X connect 123 0 192 1;
#X connect 124 0 194 1;
#X connect 124 0 195 1;
#X connect 125 0 121 0;
#X connect 127 0 125 0;
#X connect 128 0 129 0;
#X connect 129 0 122 0;
#X connect 130 0 131 0;
#X connect 131 0 123 0;
#X connect 132 0 133 0;
#X connect 133 0 124 0;
#X connect 134 0 126 0;
#X connect 135 0 156 0;
#X connect 136 0 16 0;
#X connect 137 0 136 0;
#X connect 138 0 157 0;
#X connect 139 0 35 0;
#X connect 140 0 139 0;
#X connect 141 0 159 0;
#X connect 142 0 73 0;
#X connect 143 0 142 0;
#X connect 144 0 161 0;
#X connect 145 0 89 0;
#X connect 146 0 145 0;
#X connect 147 0 154 0;
#X connect 149 0 135 0;
#X connect 149 0 138 0;
#X connect 150 0 138 0;
#X connect 151 0 141 0;
#X connect 152 0 144 0;
#X connect 153 0 154 1;
#X connect 154 0 148 0;
#X connect 155 0 137 0;
#X connect 156 0 155 0;
#X connect 157 0 158 0;
#X connect 158 0 140 0;
#X connect 159 0 160 0;
#X connect 160 0 143 0;
#X connect 161 0 162 0;
#X connect 162 0 146 0;
#X connect 163 0 164 0;
#X connect 164 0 183 0;
#X connect 165 0 164 1;
#X connect 166 0 167 0;
#X connect 167 0 169 0;
#X connect 168 0 96 0;
#X connect 170 0 103 0;
#X connect 171 0 54 0;
#X connect 172 0 46 0;
#X connect 173 0 174 0;
#X connect 174 0 72 0;
#X connect 175 0 148 0;
#X connect 176 0 120 0;
#X connect 177 0 72 0;
#X connect 178 0 177 0;
#X connect 179 0 6 0;
#X connect 179 0 9 0;
#X connect 180 0 32 0;
#X connect 180 0 33 0;
#X connect 181 0 64 0;
#X connect 181 0 67 0;
#X connect 182 0 86 0;
#X connect 182 0 87 0;
#X connect 183 0 45 0;
#X connect 183 0 138 0;
#X connect 183 0 141 0;
#X connect 183 0 144 0;
#X connect 183 0 135 0;
#X connect 184 0 27 1;
#X connect 184 0 26 1;
#X connect 185 0 70 0;
#X connect 186 0 71 0;
#X connect 187 0 43 1;
#X connect 187 0 42 1;
#X connect 188 0 70 0;
#X connect 189 0 71 0;
#X connect 190 0 81 1;
#X connect 190 0 80 1;
#X connect 191 0 70 0;
#X connect 192 0 71 0;
#X connect 193 0 95 1;
#X connect 193 0 94 1;
#X connect 194 0 70 0;
#X connect 195 0 71 0;
