#N canvas 0 23 1280 755 10;
#N canvas 11 23 632 755 juggle1 0;
#X obj 127 11 bng 15 250 50 0 empty empty Open_File 17 7 0 10 -4034
-1 -1;
#X obj 127 30 openpanel;
#X obj 127 77 soundfiler;
#X floatatom 158 99 10 0 0 0 - - -;
#X floatatom 164 173 10 0 0 0 - - -;
#X obj 128 293 phasor~;
#X obj 128 334 *~;
#X obj 158 126 s sampleSize;
#X obj 184 317 r sampleSize;
#X msg 127 52 read -resize \$1 L1 R1;
#X obj 128 406 tabread~ L1;
#X obj 160 377 tabread~ R1;
#X obj 180 257 hsl 128 15 -1 1 0 0 empty empty empty -2 -8 0 10 -262144
-1 -1 5239 1;
#X text 214 271 Dir/Speed;
#X obj 266 220 f;
#X obj 266 196 bng 15 250 50 0 empty empty empty 17 7 0 10 -204786
-1 -1;
#X text 234 176 Default Speed;
#X obj 103 524 *~;
#X obj 132 524 *~;
#X obj 19 334 metro 50;
#X obj 19 351 snapshot~;
#X floatatom 19 368 10 0 0 0 - - -;
#X obj 23 550 hsl 195 15 0 1 0 0 empty empty empty -2 -8 0 10 -262144
-1 -1 17775 1;
#X obj 34 389 r sampleSize;
#X obj 19 415 /;
#X obj 215 76 bng 15 250 50 0 empty empty empty 17 7 0 10 -262144 -1
-1;
#X obj 182 472 select 0;
#X obj 182 447 r currentFile;
#X obj 40 164 bng 15 250 50 0 empty empty empty 17 7 0 10 -262130 -1
-1;
#X floatatom 40 241 10 0 0 0 - - -;
#X obj 40 223 / 1000;
#X obj 40 107 r rndSpeed;
#X obj 40 206 - 1000;
#X obj 40 189 random 2000;
#X obj 19 317 r loadon;
#X obj 128 149 expr 44100 / $f1;
#X obj 228 580 hsl 75 15 0 1 0 0 empty empty empty -2 -8 0 10 -258113
-1 -1 7400 1;
#X obj 233 634 *~;
#X obj 262 634 *~;
#X text 373 35 inlet1: open file;
#X obj 373 51 inlet;
#X obj 438 169 inlet;
#X text 438 153 inlet2: dir/speed;
#X obj 464 444 inlet;
#X text 464 428 inlet3: volume;
#X obj 233 685 outlet~;
#X obj 262 665 outlet~;
#X obj 256 604 r onoff1;
#X obj 20 570 outlet;
#X obj 56 137 r rand1;
#X obj 182 493 s cf1;
#X obj 40 261 s ds1;
#X connect 0 0 1 0;
#X connect 1 0 9 0;
#X connect 2 0 3 0;
#X connect 2 0 35 0;
#X connect 3 0 7 0;
#X connect 4 0 14 1;
#X connect 5 0 6 0;
#X connect 6 0 10 0;
#X connect 6 0 11 0;
#X connect 6 0 20 0;
#X connect 8 0 6 1;
#X connect 9 0 2 0;
#X connect 10 0 17 0;
#X connect 11 0 18 0;
#X connect 12 0 5 0;
#X connect 14 0 12 0;
#X connect 15 0 14 0;
#X connect 17 0 37 0;
#X connect 18 0 38 0;
#X connect 19 0 20 0;
#X connect 20 0 21 0;
#X connect 21 0 24 0;
#X connect 22 0 48 0;
#X connect 23 0 24 1;
#X connect 24 0 22 0;
#X connect 25 0 3 0;
#X connect 26 0 50 0;
#X connect 27 0 26 0;
#X connect 28 0 33 0;
#X connect 29 0 12 0;
#X connect 29 0 51 0;
#X connect 30 0 29 0;
#X connect 31 0 28 0;
#X connect 32 0 30 0;
#X connect 33 0 32 0;
#X connect 34 0 19 0;
#X connect 35 0 4 0;
#X connect 35 0 5 0;
#X connect 36 0 18 1;
#X connect 36 0 17 1;
#X connect 37 0 45 0;
#X connect 38 0 46 0;
#X connect 40 0 1 0;
#X connect 41 0 5 0;
#X connect 43 0 36 0;
#X connect 47 0 38 1;
#X connect 47 0 37 1;
#X connect 49 0 28 0;
#X coords 0 755 1 754 85 60 0;
#X restore 34 101 pd juggle1;
#N canvas 0 22 450 278 (subpatch) 0;
#X array L1 294424 float 2;
#X coords 0 1 294424 -1 100 70 1 0 0;
#X restore 36 183 graph;
#N canvas 0 22 450 278 (subpatch) 0;
#X array R1 294424 float 2;
#X coords 0 1 294424 -1 100 70 1 0 0;
#X restore 35 272 graph;
#X obj 34 39 bng 15 250 50 0 empty empty Open_File 17 7 0 10 -4034
-1 -1;
#X obj 94 76 hsl 75 15 0 1 0 0 empty empty empty -2 -8 0 10 -258113
-1 -1 7400 1;
#X obj 517 36 tgl 40 0 empty loadon Jump_Between_Files -10 -10 0 10
-4034 -1 -1 0 1;
#X floatatom 573 160 5 0 0 0 - - -;
#X obj 509 652 dac~, f 6;
#X obj 509 626 *~;
#X obj 542 625 *~;
#X obj 509 497 vsl 50 75 0 1 0 0 empty empty Volume 0 -9 0 10 -162280
-204786 -66577 7400 1;
#X obj 517 199 counter 0 0 3;
#X obj 537 403 tgl 15 0 onoff1 cf1 empty 17 7 0 10 -204800 -1 -1 1
1;
#X obj 537 421 tgl 15 0 onoff2 cf2 empty 17 7 0 10 -204800 -1 -1 1
1;
#X obj 537 439 tgl 15 0 onoff3 cf3 empty 17 7 0 10 -204800 -1 -1 1
1;
#X obj 537 457 tgl 15 0 onoff4 cf4 empty 17 7 0 10 -204800 -1 -1 1
1;
#X obj 517 256 s currentFile;
#X obj 517 220 hradio 30 1 0 4 empty empty empty 0 -8 0 10 -262144
-1 -1 2;
#X obj 517 278 r currentFile;
#X obj 517 370 s rndSpeed;
#X obj 550 316 tgl 30 0 empty loadon Randomize_Speeds_on_File_Switch
-10 -10 0 10 -262130 -1 -1 1 1;
#X obj 517 348 spigot;
#X obj 573 55 tgl 25 0 empty empty Rnd_Tempo_Jumps -10 -10 0 10 -232576
-1 -1 0 1;
#X obj 573 84 metro 1000;
#X floatatom 605 64 5 100 10000 0 - - -;
#X obj 509 429 bng 25 250 50 0 empty empty MUTE 0 -10 0 10 -258113
-1 -1;
#X msg 509 458 0;
#X obj 592 336 bng 25 250 50 0 empty empty Randomize_Once 0 -10 0 10
-262130 -1 -1;
#X obj 517 179 metro 200;
#X msg 557 459 0.5;
#X obj 557 440 loadbang;
#X obj 573 108 random 300;
#N canvas 52 192 450 300 onoffs 0;
#X obj 136 239 outlet~;
#X obj 206 239 outlet~;
#X obj 141 70 r~ 1l;
#X obj 177 70 r~ 1r;
#X obj 201 100 r~ 2l;
#X obj 237 100 r~ 2r;
#X obj 261 140 r~ 3l;
#X obj 297 140 r~ 3r;
#X obj 321 170 r~ 4l;
#X obj 357 170 r~ 4r;
#X connect 2 0 0 0;
#X connect 3 0 1 0;
#X connect 4 0 0 0;
#X connect 5 0 1 0;
#X connect 6 0 0 0;
#X connect 7 0 1 0;
#X connect 8 0 0 0;
#X connect 9 0 1 0;
#X restore 509 591 pd onoffs;
#X obj 62 125 s~ 1l;
#X obj 99 125 s~ 1r;
#X obj 65 56 hsl 128 15 -1 1 0 0 empty ds1 empty -2 -8 0 10 -262144
-1 -1 6539 1;
#X obj 37 154 hsl 100 15 0 1 0 0 empty empty empty -2 -8 0 10 -262144
-1 -1 9071 1;
#X obj 604 129 s rand1;
#X obj 614 149 s rand2;
#X obj 624 169 s rand3;
#X obj 634 189 s rand4;
#N canvas 0 22 450 278 (subpatch) 0;
#X array L2 294424 float 2;
#X coords 0 1 294424 -1 100 70 1 0 0;
#X restore 246 183 graph;
#N canvas 0 22 450 278 (subpatch) 0;
#X array R2 294424 float 2;
#X coords 0 1 294424 -1 100 70 1 0 0;
#X restore 245 272 graph;
#X obj 244 39 bng 15 250 50 0 empty empty Open_File 17 7 0 10 -4034
-1 -1;
#X obj 304 76 hsl 75 15 0 1 0 0 empty empty empty -2 -8 0 10 -258113
-1 -1 7400 1;
#X obj 275 56 hsl 128 15 -1 1 0 0 empty ds2 empty -2 -8 0 10 -262144
-1 -1 6769 1;
#X obj 247 154 hsl 100 15 0 1 0 0 empty empty empty -2 -8 0 10 -262144
-1 -1 1766 1;
#X obj 272 125 s~ 2l;
#X obj 309 125 s~ 2r;
#N canvas 645 23 632 755 juggle2 0;
#X obj 127 11 bng 15 250 50 0 empty empty Open_File 17 7 0 10 -4034
-1 -1;
#X obj 127 30 openpanel;
#X obj 127 77 soundfiler;
#X floatatom 158 99 10 0 0 0 - - -;
#X floatatom 164 173 10 0 0 0 - - -;
#X obj 128 293 phasor~;
#X obj 128 334 *~;
#X obj 158 126 s sampleSize;
#X obj 184 317 r sampleSize;
#X obj 180 257 hsl 128 15 -1 1 0 0 empty empty empty -2 -8 0 10 -262144
-1 -1 9169 1;
#X text 214 271 Dir/Speed;
#X obj 266 220 f;
#X obj 266 196 bng 15 250 50 0 empty empty empty 17 7 0 10 -204786
-1 -1;
#X text 234 176 Default Speed;
#X obj 103 524 *~;
#X obj 132 524 *~;
#X obj 19 334 metro 50;
#X obj 19 351 snapshot~;
#X floatatom 19 368 10 0 0 0 - - -;
#X obj 23 550 hsl 195 15 0 1 0 0 empty empty empty -2 -8 0 10 -262144
-1 -1 3461 1;
#X obj 34 389 r sampleSize;
#X obj 19 415 /;
#X obj 215 76 bng 15 250 50 0 empty empty empty 17 7 0 10 -262144 -1
-1;
#X obj 182 447 r currentFile;
#X obj 40 164 bng 15 250 50 0 empty empty empty 17 7 0 10 -262130 -1
-1;
#X floatatom 40 241 10 0 0 0 - - -;
#X obj 40 223 / 1000;
#X obj 40 107 r rndSpeed;
#X obj 40 206 - 1000;
#X obj 40 189 random 2000;
#X obj 19 317 r loadon;
#X obj 128 149 expr 44100 / $f1;
#X obj 228 580 hsl 75 15 0 1 0 0 empty empty empty -2 -8 0 10 -258113
-1 -1 7400 1;
#X obj 233 634 *~;
#X obj 262 634 *~;
#X text 373 35 inlet1: open file;
#X obj 373 51 inlet;
#X obj 438 169 inlet;
#X text 438 153 inlet2: dir/speed;
#X obj 464 444 inlet;
#X text 464 428 inlet3: volume;
#X obj 233 685 outlet~;
#X obj 262 665 outlet~;
#X obj 20 570 outlet;
#X obj 56 137 r rand2;
#X obj 160 377 tabread~ R2;
#X obj 128 406 tabread~ L2;
#X msg 127 52 read -resize \$1 L2 R2;
#X obj 256 604 r onoff2;
#X obj 182 493 s cf2;
#X obj 182 472 select 1;
#X obj 40 261 s ds2;
#X connect 0 0 1 0;
#X connect 1 0 47 0;
#X connect 2 0 3 0;
#X connect 2 0 31 0;
#X connect 3 0 7 0;
#X connect 4 0 11 1;
#X connect 5 0 6 0;
#X connect 6 0 17 0;
#X connect 6 0 45 0;
#X connect 6 0 46 0;
#X connect 8 0 6 1;
#X connect 9 0 5 0;
#X connect 11 0 9 0;
#X connect 12 0 11 0;
#X connect 14 0 33 0;
#X connect 15 0 34 0;
#X connect 16 0 17 0;
#X connect 17 0 18 0;
#X connect 18 0 21 0;
#X connect 19 0 43 0;
#X connect 20 0 21 1;
#X connect 21 0 19 0;
#X connect 22 0 3 0;
#X connect 23 0 50 0;
#X connect 24 0 29 0;
#X connect 25 0 9 0;
#X connect 25 0 51 0;
#X connect 26 0 25 0;
#X connect 27 0 24 0;
#X connect 28 0 26 0;
#X connect 29 0 28 0;
#X connect 30 0 16 0;
#X connect 31 0 4 0;
#X connect 31 0 5 0;
#X connect 32 0 15 1;
#X connect 32 0 14 1;
#X connect 33 0 41 0;
#X connect 34 0 42 0;
#X connect 36 0 1 0;
#X connect 37 0 5 0;
#X connect 39 0 32 0;
#X connect 44 0 24 0;
#X connect 45 0 15 0;
#X connect 46 0 14 0;
#X connect 47 0 2 0;
#X connect 48 0 34 1;
#X connect 48 0 33 1;
#X connect 50 0 49 0;
#X coords 0 755 1 754 85 60 0;
#X restore 244 101 pd juggle2;
#N canvas 0 22 450 278 (subpatch) 0;
#X array L3 294424 float 2;
#X coords 0 1 294424 -1 100 70 1 0 0;
#X restore 801 169 graph;
#N canvas 0 22 450 278 (subpatch) 0;
#X array R3 294424 float 2;
#X coords 0 1 294424 -1 100 70 1 0 0;
#X restore 800 258 graph;
#X obj 799 25 bng 15 250 50 0 empty empty Open_File 17 7 0 10 -4034
-1 -1;
#X obj 859 62 hsl 75 15 0 1 0 0 empty empty empty -2 -8 0 10 -258113
-1 -1 7400 1;
#X obj 830 42 hsl 128 15 -1 1 0 0 empty ds3 empty -2 -8 0 10 -262144
-1 -1 6534 1;
#X obj 802 140 hsl 100 15 0 1 0 0 empty empty empty -2 -8 0 10 -262144
-1 -1 8922 1;
#X obj 827 111 s~ 3l;
#X obj 864 111 s~ 3r;
#N canvas 274 23 632 755 juggle3 0;
#X obj 127 11 bng 15 250 50 0 empty empty Open_File 17 7 0 10 -4034
-1 -1;
#X obj 127 30 openpanel;
#X obj 127 77 soundfiler;
#X floatatom 158 99 10 0 0 0 - - -;
#X floatatom 164 173 10 0 0 0 - - -;
#X obj 128 293 phasor~;
#X obj 128 334 *~;
#X obj 158 126 s sampleSize;
#X obj 184 317 r sampleSize;
#X obj 180 257 hsl 128 15 -1 1 0 0 empty empty empty -2 -8 0 10 -262144
-1 -1 6534 1;
#X text 214 271 Dir/Speed;
#X obj 266 220 f;
#X obj 266 196 bng 15 250 50 0 empty empty empty 17 7 0 10 -204786
-1 -1;
#X text 234 176 Default Speed;
#X obj 103 524 *~;
#X obj 132 524 *~;
#X obj 19 334 metro 50;
#X obj 19 351 snapshot~;
#X floatatom 19 368 10 0 0 0 - - -;
#X obj 23 550 hsl 195 15 0 1 0 0 empty empty empty -2 -8 0 10 -262144
-1 -1 17484 1;
#X obj 34 389 r sampleSize;
#X obj 19 415 /;
#X obj 215 76 bng 15 250 50 0 empty empty empty 17 7 0 10 -262144 -1
-1;
#X obj 182 447 r currentFile;
#X obj 40 164 bng 15 250 50 0 empty empty empty 17 7 0 10 -262130 -1
-1;
#X floatatom 40 241 10 0 0 0 - - -;
#X obj 40 223 / 1000;
#X obj 40 107 r rndSpeed;
#X obj 40 206 - 1000;
#X obj 40 189 random 2000;
#X obj 19 317 r loadon;
#X obj 128 149 expr 44100 / $f1;
#X obj 228 580 hsl 75 15 0 1 0 0 empty empty empty -2 -8 0 10 -258113
-1 -1 7400 1;
#X obj 233 634 *~;
#X obj 262 634 *~;
#X text 373 35 inlet1: open file;
#X obj 373 51 inlet;
#X obj 438 169 inlet;
#X text 438 153 inlet2: dir/speed;
#X obj 464 444 inlet;
#X text 464 428 inlet3: volume;
#X obj 233 685 outlet~;
#X obj 262 665 outlet~;
#X obj 20 570 outlet;
#X msg 127 52 read -resize \$1 L3 R3;
#X obj 56 137 r rand3;
#X obj 160 377 tabread~ R3;
#X obj 128 406 tabread~ L3;
#X obj 256 604 r onoff3;
#X obj 182 493 s cf3;
#X obj 182 472 select 2;
#X obj 40 261 s ds3;
#X connect 0 0 1 0;
#X connect 1 0 44 0;
#X connect 2 0 3 0;
#X connect 2 0 31 0;
#X connect 3 0 7 0;
#X connect 4 0 11 1;
#X connect 5 0 6 0;
#X connect 6 0 17 0;
#X connect 6 0 46 0;
#X connect 6 0 47 0;
#X connect 8 0 6 1;
#X connect 9 0 5 0;
#X connect 11 0 9 0;
#X connect 12 0 11 0;
#X connect 14 0 33 0;
#X connect 15 0 34 0;
#X connect 16 0 17 0;
#X connect 17 0 18 0;
#X connect 18 0 21 0;
#X connect 19 0 43 0;
#X connect 20 0 21 1;
#X connect 21 0 19 0;
#X connect 22 0 3 0;
#X connect 23 0 50 0;
#X connect 24 0 29 0;
#X connect 25 0 9 0;
#X connect 25 0 51 0;
#X connect 26 0 25 0;
#X connect 27 0 24 0;
#X connect 28 0 26 0;
#X connect 29 0 28 0;
#X connect 30 0 16 0;
#X connect 31 0 4 0;
#X connect 31 0 5 0;
#X connect 32 0 15 1;
#X connect 32 0 14 1;
#X connect 33 0 41 0;
#X connect 34 0 42 0;
#X connect 36 0 1 0;
#X connect 37 0 5 0;
#X connect 39 0 32 0;
#X connect 44 0 2 0;
#X connect 45 0 24 0;
#X connect 46 0 15 0;
#X connect 47 0 14 0;
#X connect 48 0 34 1;
#X connect 48 0 33 1;
#X connect 50 0 49 0;
#X coords 0 755 1 754 85 60 0;
#X restore 799 87 pd juggle3;
#N canvas 0 22 450 278 (subpatch) 0;
#X array L4 294424 float 2;
#X coords 0 1 294424 -1 100 70 1 0 0;
#X restore 1011 169 graph;
#N canvas 0 22 450 278 (subpatch) 0;
#X array R4 294424 float 2;
#X coords 0 1 294424 -1 100 70 1 0 0;
#X restore 1010 258 graph;
#X obj 1009 25 bng 15 250 50 0 empty empty Open_File 17 7 0 10 -4034
-1 -1;
#X obj 1069 62 hsl 75 15 0 1 0 0 empty empty empty -2 -8 0 10 -258113
-1 -1 7400 1;
#X obj 1040 42 hsl 128 15 -1 1 0 0 empty ds4 empty -2 -8 0 10 -262144
-1 -1 6769 1;
#X obj 1012 140 hsl 100 15 0 1 0 0 empty empty empty -2 -8 0 10 -262144
-1 -1 7354 1;
#N canvas 274 23 632 755 juggle4 0;
#X obj 127 11 bng 15 250 50 0 empty empty Open_File 17 7 0 10 -4034
-1 -1;
#X obj 127 30 openpanel;
#X obj 127 77 soundfiler;
#X floatatom 158 99 10 0 0 0 - - -;
#X floatatom 164 173 10 0 0 0 - - -;
#X obj 128 293 phasor~;
#X obj 128 334 *~;
#X obj 158 126 s sampleSize;
#X obj 184 317 r sampleSize;
#X obj 180 257 hsl 128 15 -1 1 0 0 empty empty empty -2 -8 0 10 -262144
-1 -1 6769 1;
#X text 214 271 Dir/Speed;
#X obj 266 220 f;
#X obj 266 196 bng 15 250 50 0 empty empty empty 17 7 0 10 -204786
-1 -1;
#X text 234 176 Default Speed;
#X obj 103 524 *~;
#X obj 132 524 *~;
#X obj 19 334 metro 50;
#X obj 19 351 snapshot~;
#X floatatom 19 368 10 0 0 0 - - -;
#X obj 23 550 hsl 195 15 0 1 0 0 empty empty empty -2 -8 0 10 -262144
-1 -1 14412 1;
#X obj 34 389 r sampleSize;
#X obj 19 415 /;
#X obj 215 76 bng 15 250 50 0 empty empty empty 17 7 0 10 -262144 -1
-1;
#X obj 182 447 r currentFile;
#X obj 40 164 bng 15 250 50 0 empty empty empty 17 7 0 10 -262130 -1
-1;
#X floatatom 40 241 10 0 0 0 - - -;
#X obj 40 223 / 1000;
#X obj 40 107 r rndSpeed;
#X obj 40 206 - 1000;
#X obj 40 189 random 2000;
#X obj 19 317 r loadon;
#X obj 128 149 expr 44100 / $f1;
#X obj 228 580 hsl 75 15 0 1 0 0 empty empty empty -2 -8 0 10 -258113
-1 -1 7400 1;
#X obj 233 634 *~;
#X obj 262 634 *~;
#X text 373 35 inlet1: open file;
#X obj 373 51 inlet;
#X obj 438 169 inlet;
#X text 438 153 inlet2: dir/speed;
#X obj 464 444 inlet;
#X text 464 428 inlet3: volume;
#X obj 233 685 outlet~;
#X obj 262 665 outlet~;
#X obj 20 570 outlet;
#X msg 127 52 read -resize \$1 L4 R4;
#X obj 56 137 r rand4;
#X obj 160 377 tabread~ R4;
#X obj 128 406 tabread~ L4;
#X obj 256 604 r onoff4;
#X obj 182 493 s cf4;
#X obj 182 472 select 3;
#X obj 40 261 s ds4;
#X connect 0 0 1 0;
#X connect 1 0 44 0;
#X connect 2 0 3 0;
#X connect 2 0 31 0;
#X connect 3 0 7 0;
#X connect 4 0 11 1;
#X connect 5 0 6 0;
#X connect 6 0 17 0;
#X connect 6 0 46 0;
#X connect 6 0 47 0;
#X connect 8 0 6 1;
#X connect 9 0 5 0;
#X connect 11 0 9 0;
#X connect 12 0 11 0;
#X connect 14 0 33 0;
#X connect 15 0 34 0;
#X connect 16 0 17 0;
#X connect 17 0 18 0;
#X connect 18 0 21 0;
#X connect 19 0 43 0;
#X connect 20 0 21 1;
#X connect 21 0 19 0;
#X connect 22 0 3 0;
#X connect 23 0 50 0;
#X connect 24 0 29 0;
#X connect 25 0 9 0;
#X connect 25 0 51 0;
#X connect 26 0 25 0;
#X connect 27 0 24 0;
#X connect 28 0 26 0;
#X connect 29 0 28 0;
#X connect 30 0 16 0;
#X connect 31 0 4 0;
#X connect 31 0 5 0;
#X connect 32 0 15 1;
#X connect 32 0 14 1;
#X connect 33 0 41 0;
#X connect 34 0 42 0;
#X connect 36 0 1 0;
#X connect 37 0 5 0;
#X connect 39 0 32 0;
#X connect 44 0 2 0;
#X connect 45 0 24 0;
#X connect 46 0 15 0;
#X connect 47 0 14 0;
#X connect 48 0 34 1;
#X connect 48 0 33 1;
#X connect 50 0 49 0;
#X coords 0 755 1 754 85 60 0;
#X restore 1009 87 pd juggle4;
#X obj 1037 111 s~ 4l;
#X obj 1074 111 s~ 4r;
#X obj 574 519 loadbang;
#X msg 574 539 1;
#X obj 574 559 s loadon;
#N canvas 0 23 515 755 notes 0;
#X text 6 8 -violin 20 on all channels. all play forwards \, very slowly....
but diff speeds, f 79;
#X restore 508 686 pd notes;
#X connect 0 0 36 0;
#X connect 0 1 33 0;
#X connect 0 2 34 0;
#X connect 3 0 0 0;
#X connect 4 0 0 2;
#X connect 5 0 28 0;
#X connect 6 0 28 1;
#X connect 8 0 7 0;
#X connect 9 0 7 1;
#X connect 10 0 8 1;
#X connect 10 0 9 1;
#X connect 11 0 17 0;
#X connect 17 0 16 0;
#X connect 18 0 21 0;
#X connect 20 0 21 1;
#X connect 21 0 19 0;
#X connect 22 0 23 0;
#X connect 23 0 31 0;
#X connect 24 0 23 1;
#X connect 25 0 26 0;
#X connect 26 0 10 0;
#X connect 27 0 19 0;
#X connect 28 0 11 0;
#X connect 29 0 10 0;
#X connect 30 0 29 0;
#X connect 31 0 6 0;
#X connect 31 0 37 0;
#X connect 31 0 40 0;
#X connect 31 0 39 0;
#X connect 31 0 38 0;
#X connect 32 0 8 0;
#X connect 32 1 9 0;
#X connect 35 0 0 1;
#X connect 43 0 49 0;
#X connect 44 0 49 2;
#X connect 45 0 49 1;
#X connect 49 0 46 0;
#X connect 49 1 47 0;
#X connect 49 2 48 0;
#X connect 52 0 58 0;
#X connect 53 0 58 2;
#X connect 54 0 58 1;
#X connect 58 0 55 0;
#X connect 58 1 56 0;
#X connect 58 2 57 0;
#X connect 61 0 65 0;
#X connect 62 0 65 2;
#X connect 63 0 65 1;
#X connect 65 0 64 0;
#X connect 65 1 66 0;
#X connect 65 2 67 0;
#X connect 68 0 69 0;
#X connect 69 0 70 0;
