#N canvas 87 69 1120 578 10;
#X obj 54 301 osc~;
#X obj 92 301 hsl 64 15 0 1 0 0 empty empty 0-1 -2 8 0 10 -262144 -1
-1 857 1;
#X obj 54 346 *~;
#X obj 89 281 line;
#X obj 176 301 osc~;
#X obj 214 301 hsl 64 15 0 1 0 0 empty empty 0-1 -2 8 0 10 -262144
-1 -1 0 1;
#X obj 176 346 *~;
#X obj 211 281 line;
#X obj 298 301 osc~;
#X obj 336 301 hsl 64 15 0 1 0 0 empty empty 0-1 -2 8 0 10 -262144
-1 -1 4637 1;
#X obj 298 346 *~;
#X obj 333 281 line;
#X obj 420 301 osc~;
#X obj 458 301 hsl 64 15 0 1 0 0 empty empty 0-1 -2 8 0 10 -262144
-1 -1 3377 1;
#X obj 420 346 *~;
#X obj 455 281 line;
#X obj 542 301 osc~;
#X obj 580 301 hsl 64 15 0 1 0 0 empty empty 0-1 -2 8 0 10 -262144
-1 -1 0 1;
#X obj 542 346 *~;
#X obj 577 281 line;
#X obj 664 301 osc~;
#X obj 702 301 hsl 64 15 0 1 0 0 empty empty 0-1 -2 8 0 10 -262144
-1 -1 2117 1;
#X obj 664 346 *~;
#X obj 699 281 line;
#X obj 786 301 osc~;
#X obj 824 301 hsl 64 15 0 1 0 0 empty empty 0-1 -2 8 0 10 -262144
-1 -1 5897 1;
#X obj 786 346 *~;
#X obj 821 281 line;
#X obj 908 301 osc~;
#X obj 946 301 hsl 64 15 0 1 0 0 empty empty 0-1 -2 8 0 10 -262144
-1 -1 0 1;
#X obj 908 346 *~;
#X obj 943 281 line;
#X text 27 1 141.27: MERCURY: intellectuality \, mobility;
#X text 27 13 194.71: EARTH: stability \, grounding;
#X text 27 26 221.23: VENUS: love \, sex \, sensuality \, harmony;
#X text 27 38 342: ears \, formal concepts \, hearing \, lungs \, oxygen
;
#X text 27 50 396: (solfeggio) liberating guilt and fear;
#X text 27 62 420.82: MOON: sensitivity \, creativity \, femininity
;
#X text 27 75 639: (solfeggio) connecting. relationships.;
#X text 27 87 2675: "crystal resonator". subharmonic of quartz crystal.
charges and cleanses quartz. auric field?;
#X msg 176 230 194.71;
#X msg 298 230 221.23;
#X msg 420 230 342;
#X msg 542 230 396;
#X msg 664 230 420.82;
#X msg 786 230 639;
#X msg 908 230 2675;
#X obj 493 131 + 1;
#X floatatom 493 152 5 0 0 0 - - -;
#X obj 493 69 tgl 15 0 empty empty empty 17 7 0 10 -262144 -1 -1 1
1;
#X obj 493 89 metro;
#X floatatom 520 69 5 0 0 0 - - -;
#X obj 503 172 sel 1 2 3 4 5 6 7 8;
#X obj 493 110 random 8;
#X obj 64 322 delwrite~ a 5000;
#X msg 54 230 141.27;
#X obj 435 39 inlet;
#X obj 485 39 inlet;
#X obj 54 424 snapshot~;
#X obj 54 445 abs;
#X floatatom 54 466 5 0 0 0 - - -;
#X obj 176 428 snapshot~;
#X obj 176 449 abs;
#X floatatom 176 470 5 0 0 0 - - -;
#X obj 298 434 snapshot~;
#X obj 298 455 abs;
#X floatatom 298 476 5 0 0 0 - - -;
#X obj 420 438 snapshot~;
#X obj 420 459 abs;
#X floatatom 420 480 5 0 0 0 - - -;
#X obj 542 424 snapshot~;
#X obj 542 445 abs;
#X floatatom 542 466 5 0 0 0 - - -;
#X obj 664 428 snapshot~;
#X obj 664 449 abs;
#X floatatom 664 470 5 0 0 0 - - -;
#X obj 786 434 snapshot~;
#X obj 786 455 abs;
#X floatatom 786 476 5 0 0 0 - - -;
#X obj 908 438 snapshot~;
#X obj 908 459 abs;
#X floatatom 908 480 5 0 0 0 - - -;
#X obj 56 526 line;
#X obj 56 547 outlet;
#X obj 175 528 line;
#X obj 175 549 outlet;
#X obj 299 530 line;
#X obj 299 551 outlet;
#X obj 416 530 line;
#X obj 416 551 outlet;
#X obj 547 521 line;
#X obj 547 542 outlet;
#X obj 669 531 line;
#X obj 669 552 outlet;
#X obj 792 529 line;
#X obj 792 550 outlet;
#X obj 901 528 line;
#X obj 901 549 outlet;
#X obj 59 397 metro 25;
#X obj 181 401 metro 25;
#X obj 303 407 metro 25;
#X obj 425 411 metro 25;
#X obj 547 397 metro 25;
#X obj 669 401 metro 25;
#X obj 791 407 metro 25;
#X obj 913 411 metro 25;
#X msg 333 260 1 \, 0 5000;
#X msg 89 260 1 \, 0 5000;
#X msg 211 260 1 \, 0 5000;
#X msg 455 260 1 \, 0 5000;
#X msg 577 260 1 \, 0 5000;
#X msg 699 260 1 \, 0 5000;
#X msg 821 260 1 \, 0 5000;
#X msg 943 260 1 \, 0 5000;
#X msg 56 505 \$1 150;
#X msg 175 507 \$1 150;
#X msg 299 509 \$1 150;
#X msg 416 509 \$1 150;
#X msg 547 500 \$1 150;
#X msg 669 510 \$1 150;
#X msg 792 508 \$1 150;
#X msg 901 507 \$1 150;
#X connect 0 0 2 0;
#X connect 0 0 54 0;
#X connect 1 0 2 1;
#X connect 2 0 58 0;
#X connect 3 0 1 0;
#X connect 4 0 6 0;
#X connect 5 0 6 1;
#X connect 6 0 61 0;
#X connect 7 0 5 0;
#X connect 8 0 10 0;
#X connect 9 0 10 1;
#X connect 10 0 64 0;
#X connect 11 0 9 0;
#X connect 12 0 14 0;
#X connect 13 0 14 1;
#X connect 14 0 67 0;
#X connect 15 0 13 0;
#X connect 16 0 18 0;
#X connect 17 0 18 1;
#X connect 18 0 70 0;
#X connect 19 0 17 0;
#X connect 20 0 22 0;
#X connect 21 0 22 1;
#X connect 22 0 73 0;
#X connect 23 0 21 0;
#X connect 24 0 26 0;
#X connect 25 0 26 1;
#X connect 26 0 76 0;
#X connect 27 0 25 0;
#X connect 28 0 30 0;
#X connect 29 0 30 1;
#X connect 30 0 79 0;
#X connect 31 0 29 0;
#X connect 40 0 4 0;
#X connect 40 0 108 0;
#X connect 41 0 8 0;
#X connect 41 0 106 0;
#X connect 42 0 12 0;
#X connect 42 0 109 0;
#X connect 43 0 16 0;
#X connect 43 0 110 0;
#X connect 44 0 20 0;
#X connect 44 0 111 0;
#X connect 45 0 24 0;
#X connect 45 0 112 0;
#X connect 46 0 28 0;
#X connect 46 0 113 0;
#X connect 47 0 48 0;
#X connect 48 0 52 0;
#X connect 49 0 50 0;
#X connect 49 0 98 0;
#X connect 49 0 99 0;
#X connect 49 0 100 0;
#X connect 49 0 101 0;
#X connect 49 0 102 0;
#X connect 49 0 103 0;
#X connect 49 0 104 0;
#X connect 49 0 105 0;
#X connect 50 0 53 0;
#X connect 51 0 50 1;
#X connect 52 0 55 0;
#X connect 52 1 40 0;
#X connect 52 2 41 0;
#X connect 52 3 42 0;
#X connect 52 4 43 0;
#X connect 52 5 44 0;
#X connect 52 6 45 0;
#X connect 52 7 46 0;
#X connect 53 0 47 0;
#X connect 55 0 0 0;
#X connect 55 0 107 0;
#X connect 56 0 49 0;
#X connect 57 0 51 0;
#X connect 58 0 59 0;
#X connect 59 0 60 0;
#X connect 60 0 114 0;
#X connect 61 0 62 0;
#X connect 62 0 63 0;
#X connect 63 0 115 0;
#X connect 64 0 65 0;
#X connect 65 0 66 0;
#X connect 66 0 116 0;
#X connect 67 0 68 0;
#X connect 68 0 69 0;
#X connect 69 0 117 0;
#X connect 70 0 71 0;
#X connect 71 0 72 0;
#X connect 72 0 118 0;
#X connect 73 0 74 0;
#X connect 74 0 75 0;
#X connect 75 0 119 0;
#X connect 76 0 77 0;
#X connect 77 0 78 0;
#X connect 78 0 120 0;
#X connect 79 0 80 0;
#X connect 80 0 81 0;
#X connect 81 0 121 0;
#X connect 82 0 83 0;
#X connect 84 0 85 0;
#X connect 86 0 87 0;
#X connect 88 0 89 0;
#X connect 90 0 91 0;
#X connect 92 0 93 0;
#X connect 94 0 95 0;
#X connect 96 0 97 0;
#X connect 98 0 58 0;
#X connect 99 0 61 0;
#X connect 100 0 64 0;
#X connect 101 0 67 0;
#X connect 102 0 70 0;
#X connect 103 0 73 0;
#X connect 104 0 76 0;
#X connect 105 0 79 0;
#X connect 106 0 11 0;
#X connect 107 0 3 0;
#X connect 108 0 7 0;
#X connect 109 0 15 0;
#X connect 110 0 19 0;
#X connect 111 0 23 0;
#X connect 112 0 27 0;
#X connect 113 0 31 0;
#X connect 114 0 82 0;
#X connect 115 0 84 0;
#X connect 116 0 86 0;
#X connect 117 0 88 0;
#X connect 118 0 90 0;
#X connect 119 0 92 0;
#X connect 120 0 94 0;
#X connect 121 0 96 0;
