#N canvas 335 23 893 677 10;
#X floatatom 36 115 5 0 0 0 - - -;
#X floatatom 70 115 5 0 0 0 - - -;
#X floatatom 104 115 5 0 0 0 - - -;
#X floatatom 138 115 5 0 0 0 - - -;
#X floatatom 272 115 5 0 0 0 - - -;
#X floatatom 306 115 5 0 0 0 - - -;
#X floatatom 340 115 5 0 0 0 - - -;
#X floatatom 374 115 5 0 0 0 - - -;
#X obj 110 28 tgl 15 0 empty empty empty 17 7 0 10 -262144 -1 -1 0
1;
#X floatatom 191 28 5 0 0 0 - - -;
#X obj 110 55 cymatic-indiv-outs;
#X obj 168 185 sig~;
#X obj 168 206 osc~;
#X obj 168 165 * 1000;
#X obj 278 185 sig~;
#X obj 278 206 osc~;
#X obj 278 165 * 1000;
#X obj 320 185 sig~;
#X obj 320 206 osc~;
#X obj 320 165 * 1000;
#X obj 362 185 sig~;
#X obj 362 206 osc~;
#X obj 362 165 * 1000;
#X obj 42 185 sig~;
#X obj 42 206 osc~;
#X obj 42 165 * 1000;
#X obj 84 185 sig~;
#X obj 84 206 osc~;
#X obj 84 165 * 1000;
#X obj 126 185 sig~;
#X obj 126 206 osc~;
#X obj 126 165 * 1000;
#X obj 404 185 sig~;
#X obj 404 206 osc~;
#X obj 404 165 * 1000;
#X obj 36 331 vsl 15 64 0 1 0 0 empty empty empty 0 -9 0 10 -262144
-1 -1 0 1;
#X obj 70 291 vsl 15 64 0 1 0 0 empty empty empty 0 -9 0 10 -262144
-1 -1 0 1;
#X obj 104 286 vsl 15 64 0 1 0 0 empty empty empty 0 -9 0 10 -262144
-1 -1 0 1;
#X obj 138 251 vsl 15 64 0 1 0 0 empty empty empty 0 -9 0 10 -262144
-1 -1 0 1;
#X obj 272 331 vsl 15 64 0 1 0 0 empty empty empty 0 -9 0 10 -262144
-1 -1 0 1;
#X obj 306 291 vsl 15 64 0 1 0 0 empty empty empty 0 -9 0 10 -262144
-1 -1 0 1;
#X obj 340 286 vsl 15 64 0 1 0 0 empty empty empty 0 -9 0 10 -262144
-1 -1 0 1;
#X obj 374 251 vsl 15 64 0 1 0 0 empty empty empty 0 -9 0 10 -262144
-1 -1 0 1;
#X obj 516 348 ringmod~;
#X obj 516 428 freeverb~;
#X obj 516 600 dac~;
#X floatatom 36 403 5 0 0 0 - - -;
#X floatatom 70 363 5 0 0 0 - - -;
#X floatatom 104 358 5 0 0 0 - - -;
#X floatatom 138 323 5 0 0 0 - - -;
#X floatatom 272 403 5 0 0 0 - - -;
#X floatatom 306 363 5 0 0 0 - - -;
#X floatatom 340 358 5 0 0 0 - - -;
#X floatatom 374 323 5 0 0 0 - - -;
#X obj 656 348 ringmod~;
#X obj 656 428 freeverb~;
#X obj 686 600 dac~;
#X obj 516 388 pitchdelayL~;
#X obj 656 388 pitchdelayR~;
#X text 513 616 LEFT channel;
#X text 684 616 RIGHT channel;
#X obj 559 63 sigmund~;
#X floatatom 618 86 5 0 0 0 - - -;
#X obj 604 128 change;
#X text 248 42 suggestion: 500-2000;
#X text 228 27 set tempo (ms) of effect triggers;
#X text 21 651 SEE ALSO: "readme.pd" for more information;
#X obj 162 7 loadbang;
#X msg 162 28 500;
#X text 59 457 T O B E G I N;
#X text 90 477 select your input: tape player \, bass guitar \, or
microphone. insert the applicable cable (to your left) into channel
"MIC/LINE GAIN 1". Do not adjust volume levels on the audio interface
or tape palyer \, or the patch will not work optimally!;
#X text 91 540 Use the headphones provided to listen. if the volume
is too quiet or loud in your headphones \, you can adjust the levels
using the VOL UP/DOWN buttons on the laptop without affecting the signal
(upper right corner of the keyboard).;
#X obj 604 106 > 50;
#X text 450 241 plucks - scitter scatter /// talking /// cabletip drone
// scitter jam into moments of silence into progressively sparser;
#X obj 516 26 adc~;
#X connect 0 0 25 0;
#X connect 0 0 35 0;
#X connect 1 0 28 0;
#X connect 1 0 36 0;
#X connect 2 0 31 0;
#X connect 2 0 37 0;
#X connect 3 0 13 0;
#X connect 3 0 38 0;
#X connect 4 0 16 0;
#X connect 4 0 39 0;
#X connect 5 0 19 0;
#X connect 5 0 40 0;
#X connect 6 0 22 0;
#X connect 6 0 41 0;
#X connect 7 0 34 0;
#X connect 7 0 42 0;
#X connect 8 0 10 0;
#X connect 9 0 10 1;
#X connect 10 0 0 0;
#X connect 10 1 1 0;
#X connect 10 2 2 0;
#X connect 10 3 3 0;
#X connect 10 4 4 0;
#X connect 10 5 5 0;
#X connect 10 6 6 0;
#X connect 10 7 7 0;
#X connect 11 0 12 0;
#X connect 13 0 11 0;
#X connect 14 0 15 0;
#X connect 16 0 14 0;
#X connect 17 0 18 0;
#X connect 19 0 17 0;
#X connect 20 0 21 0;
#X connect 22 0 20 0;
#X connect 23 0 24 0;
#X connect 25 0 23 0;
#X connect 26 0 27 0;
#X connect 28 0 26 0;
#X connect 29 0 30 0;
#X connect 31 0 29 0;
#X connect 32 0 33 0;
#X connect 34 0 32 0;
#X connect 35 0 46 0;
#X connect 36 0 47 0;
#X connect 37 0 48 0;
#X connect 38 0 49 0;
#X connect 39 0 50 0;
#X connect 40 0 51 0;
#X connect 41 0 52 0;
#X connect 42 0 53 0;
#X connect 43 0 57 0;
#X connect 43 1 57 1;
#X connect 44 0 45 0;
#X connect 44 1 45 0;
#X connect 46 0 44 2;
#X connect 47 0 57 2;
#X connect 48 0 57 3;
#X connect 49 0 43 2;
#X connect 50 0 55 2;
#X connect 51 0 58 2;
#X connect 52 0 58 3;
#X connect 53 0 54 2;
#X connect 54 0 58 0;
#X connect 54 1 58 1;
#X connect 55 0 56 1;
#X connect 55 1 56 1;
#X connect 57 0 44 0;
#X connect 58 0 55 0;
#X connect 61 1 62 0;
#X connect 61 1 72 0;
#X connect 63 0 8 0;
#X connect 67 0 68 0;
#X connect 68 0 9 0;
#X connect 72 0 63 0;
#X connect 74 0 43 0;
#X connect 74 0 43 1;
#X connect 74 0 61 0;
#X connect 74 1 54 0;
#X connect 74 1 54 1;
#X connect 74 1 61 0;
