#N canvas 0 144 612 536 10;
#X text 324 17 PITCH SHIFTING DELAY;
#X obj 230 174 vsl 15 128 0 200 0 0 empty empty delay! 0 -9 0 10 -262144
-1 -1 10105 1;
#X obj 230 366 vline~;
#X obj 174 446 *~;
#X msg 230 345 \$1 200;
#X obj 323 113 inlet;
#X obj 230 96 inlet;
#X obj 11 18 inlet~;
#X obj 154 493 outlet~;
#X text 206 496 outlet 1: dac~;
#X obj 230 117 / 1;
#X obj 48 42 inlet~;
#X text 54 20 inlet 1: l audio in;
#X text 91 44 inlet 2: r audio in;
#X text 273 39 via user 'toxonic' @ forum.pdpatchrepo.info;
#X text 323 55 adapted for stereo by t. noykoa;
#X obj 277 174 vsl 15 128 0 0.99 0 1 empty empty fb 0 -9 0 10 -262144
-1 -1 9347 1;
#X obj 277 136 - 0.01;
#X text 360 113 inlet 4:;
#X text 268 99 inlet 3:;
#X obj 230 136 * 200;
#X obj 154 412 vd~ pitchL;
#X obj 173 393 delwrite~ pitchR 2000;
#X connect 1 0 4 0;
#X connect 2 0 21 0;
#X connect 3 0 22 0;
#X connect 4 0 2 0;
#X connect 5 0 17 0;
#X connect 6 0 10 0;
#X connect 7 0 22 0;
#X connect 10 0 20 0;
#X connect 11 0 22 0;
#X connect 16 0 3 1;
#X connect 17 0 16 0;
#X connect 20 0 1 0;
#X connect 21 0 3 0;
#X connect 21 0 8 0;
