#N canvas 597 246 552 300 10;
#X obj 54 191 *~;
#X obj 54 243 outlet~;
#X floatatom 299 110 5 0 0 0 - - -;
#X obj 299 130 osc~;
#X obj 299 59 inlet;
#X obj 54 40 inlet~;
#X obj 284 191 *~;
#X obj 284 243 outlet~;
#X obj 284 40 inlet~;
#X text 103 243 outlet 1: l audio out;
#X text 333 243 outlet 2: r audio out;
#X text 99 39 inlet 1: l audio in;
#X text 329 39 inlet 2: r audio in;
#X text 335 60 inlet 3: ring modulator;
#X obj 299 80 * 500;
#X connect 0 0 1 0;
#X connect 2 0 3 0;
#X connect 3 0 0 1;
#X connect 3 0 6 1;
#X connect 4 0 14 0;
#X connect 5 0 0 0;
#X connect 6 0 7 0;
#X connect 8 0 6 0;
#X connect 14 0 2 0;
