#N canvas 55 23 898 695 10;
#X obj 528 432 s maxLength;
#X msg 528 411 4410;
#X obj 313 132 hsl 128 15 5 2000 0 0 empty tMeanH empty -2 -8 0 10
-262144 -1 -1 2199 1;
#X obj 365 153 hsl 128 15 0 2000 0 0 empty tRangeH empty -2 -8 0 10
-262144 -1 -1 900 1;
#X text 505 154 time range;
#X obj 310 152 s tMean;
#X obj 362 175 s tRange;
#X obj 22 198 hsl 128 15 0 1 0 0 empty lMeanH empty -2 -8 0 10 -262144
-1 -1 1397 1;
#X obj 71 222 hsl 128 15 0 1 0 0 empty lRangeH empty -2 -8 0 10 -262144
-1 -1 1892 1;
#X text 206 222 length range;
#X obj 68 242 s lRange;
#X obj 591 153 hsl 128 15 0 20 0 0 empty spMeanH empty -2 -8 0 10 -262144
-1 -1 1300 1;
#X obj 659 177 hsl 128 15 0 20 0 0 empty spRangeH empty -2 -8 0 10
-262144 -1 -1 3400 1;
#X text 795 176 speed range;
#X obj 588 173 s spMean;
#X obj 656 197 s spRange;
#X obj 12 131 hsl 195 15 0 1 0 0 empty stMeanH empty -2 -8 0 10 -262144
-1 -1 3589 1;
#X obj 152 151 hsl 128 15 0 1 0 0 empty stRangeH empty -2 -8 0 10 -262144
-1 -1 3391 1;
#X text 213 173 start range;
#X obj 9 151 s stMean;
#X obj 149 171 s stRange;
#X msg 588 130 1;
#X obj 527 389 loadbang;
#X obj 361 199 hsl 128 15 0 1 0 0 empty volMeanH empty -2 -8 0 10 -262144
-1 -1 12700 1;
#X obj 425 222 hsl 128 15 0 0.5 0 0 empty volRangeH empty -2 -8 0 10
-262144 -1 -1 0 1;
#X obj 19 218 s lMean;
#X text 493 244 volume range;
#X obj 620 224 hsl 128 15 0 1 0 0 empty panningH empty -2 -8 0 10 -262144
-1 -1 6350 1;
#X text 753 224 panning;
#X obj 617 243 s panning;
#X obj 358 246 s volMean;
#X obj 428 266 s volRange;
#X obj 581 461 bng 15 250 50 0 empty empty empty 17 7 0 10 -262144
-1 -1;
#X msg 530 484 0.5;
#X msg 530 506 0.1;
#X msg 530 526 1;
#X msg 530 548 0;
#X msg 530 462 1000;
#X obj 583 486 s stMeanH;
#X obj 583 506 s tMeanH;
#X obj 583 546 s spMeanH;
#X obj 583 566 s volMeanH;
#X obj 583 586 s panningH;
#X obj 662 486 s stRangeH;
#X obj 662 506 s tRangeH;
#X obj 662 546 s spRangeH;
#X obj 662 566 s volRangeH;
#X obj 583 526 s lMeanH;
#X obj 662 526 s lRangeH;
#X msg 693 440 2000;
#X obj 693 461 s maxDel;
#X obj 611 374 adc~;
#X obj 619 400 delwrite~ tape1 5000;
#X obj 440 473 s octaveLock;
#X obj 440 453 tgl 15 0 empty empty empty 17 7 0 10 -262144 -1 -1 0
1;
#X obj 439 431 s grainsNum;
#X floatatom 439 409 5 0 0 0 - - -;
#N canvas 0 23 1258 676 online8grains 0;
#N canvas 0 22 1020 608 selector8toggles 0;
#X msg 200 147 1;
#X msg 161 147 0;
#X msg 240 192 1;
#X msg 201 192 0;
#X obj 161 340 tgl 15 0 empty empty empty 17 7 0 10 -262144 -1 -1 1
1;
#X obj 184 340 tgl 15 0 empty empty empty 17 7 0 10 -262144 -1 -1 1
1;
#X obj 206 340 tgl 15 0 empty empty empty 17 7 0 10 -262144 -1 -1 1
1;
#X obj 229 340 tgl 15 0 empty empty empty 17 7 0 10 -262144 -1 -1 1
1;
#X msg 280 238 1;
#X msg 241 238 0;
#X msg 321 286 1;
#X msg 282 286 0;
#X obj 161 125 moses 1;
#X obj 201 170 moses 2;
#X obj 241 216 moses 3;
#X obj 282 264 moses 4;
#X msg 290 149 1;
#X msg 251 149 0;
#X msg 330 194 1;
#X msg 291 194 0;
#X msg 370 240 1;
#X msg 331 240 0;
#X msg 411 288 1;
#X msg 372 288 0;
#X obj 251 127 moses 5;
#X obj 291 172 moses 6;
#X obj 331 218 moses 7;
#X obj 372 266 moses 8;
#X obj 260 340 tgl 15 0 empty empty empty 17 7 0 10 -262144 -1 -1 1
1;
#X obj 283 340 tgl 15 0 empty empty empty 17 7 0 10 -262144 -1 -1 1
1;
#X obj 305 340 tgl 15 0 empty empty empty 17 7 0 10 -262144 -1 -1 1
1;
#X obj 328 340 tgl 15 0 empty empty empty 17 7 0 10 -262144 -1 -1 1
1;
#X obj 295 95 inlet;
#X obj 184 385 outlet;
#X obj 161 362 outlet;
#X obj 229 383 outlet;
#X obj 206 360 outlet;
#X obj 283 384 outlet;
#X obj 260 361 outlet;
#X obj 328 382 outlet;
#X obj 305 359 outlet;
#X connect 0 0 4 0;
#X connect 1 0 4 0;
#X connect 2 0 5 0;
#X connect 3 0 5 0;
#X connect 4 0 34 0;
#X connect 5 0 33 0;
#X connect 6 0 36 0;
#X connect 7 0 35 0;
#X connect 8 0 6 0;
#X connect 9 0 6 0;
#X connect 10 0 7 0;
#X connect 11 0 7 0;
#X connect 12 0 1 0;
#X connect 12 1 0 0;
#X connect 13 0 3 0;
#X connect 13 1 2 0;
#X connect 14 0 9 0;
#X connect 14 1 8 0;
#X connect 15 0 11 0;
#X connect 15 1 10 0;
#X connect 16 0 28 0;
#X connect 17 0 28 0;
#X connect 18 0 29 0;
#X connect 19 0 29 0;
#X connect 20 0 30 0;
#X connect 21 0 30 0;
#X connect 22 0 31 0;
#X connect 23 0 31 0;
#X connect 24 0 17 0;
#X connect 24 1 16 0;
#X connect 25 0 19 0;
#X connect 25 1 18 0;
#X connect 26 0 21 0;
#X connect 26 1 20 0;
#X connect 27 0 23 0;
#X connect 27 1 22 0;
#X connect 28 0 38 0;
#X connect 29 0 37 0;
#X connect 30 0 40 0;
#X connect 31 0 39 0;
#X connect 32 0 12 0;
#X connect 32 0 13 0;
#X connect 32 0 14 0;
#X connect 32 0 15 0;
#X connect 32 0 24 0;
#X connect 32 0 25 0;
#X connect 32 0 26 0;
#X connect 32 0 27 0;
#X restore 956 48 pd selector8toggles;
#X obj 956 25 inlet;
#X obj 102 287 anOnlineGrain;
#X obj 99 52 r tMean;
#X obj 106 72 r tRange;
#X obj 121 115 r lRange;
#X obj 128 135 r spMean;
#X obj 136 154 r spRange;
#X obj 145 173 r stMean;
#X obj 114 94 r lMean;
#X obj 150 192 r stRange;
#X obj 158 210 r volMean;
#X obj 165 229 r volRange;
#X obj 173 248 r panning;
#X obj 182 266 r octaveLock;
#X obj 102 28 tgl 15 0 empty empty empty 17 7 0 10 -262144 -1 -1 1
1;
#X obj 275 51 r tMean;
#X obj 282 71 r tRange;
#X obj 297 114 r lRange;
#X obj 304 134 r spMean;
#X obj 312 153 r spRange;
#X obj 321 172 r stMean;
#X obj 290 93 r lMean;
#X obj 326 191 r stRange;
#X obj 334 209 r volMean;
#X obj 341 228 r volRange;
#X obj 349 247 r panning;
#X obj 358 265 r octaveLock;
#X obj 278 27 tgl 15 0 empty empty empty 17 7 0 10 -262144 -1 -1 1
1;
#X obj 439 54 r tMean;
#X obj 446 74 r tRange;
#X obj 461 117 r lRange;
#X obj 468 137 r spMean;
#X obj 476 156 r spRange;
#X obj 485 175 r stMean;
#X obj 454 96 r lMean;
#X obj 490 194 r stRange;
#X obj 498 212 r volMean;
#X obj 505 231 r volRange;
#X obj 513 250 r panning;
#X obj 522 268 r octaveLock;
#X obj 442 30 tgl 15 0 empty empty empty 17 7 0 10 -262144 -1 -1 1
1;
#X obj 615 53 r tMean;
#X obj 622 73 r tRange;
#X obj 637 116 r lRange;
#X obj 644 136 r spMean;
#X obj 652 155 r spRange;
#X obj 661 174 r stMean;
#X obj 630 95 r lMean;
#X obj 666 193 r stRange;
#X obj 674 211 r volMean;
#X obj 681 230 r volRange;
#X obj 689 249 r panning;
#X obj 698 267 r octaveLock;
#X obj 618 29 tgl 15 0 empty empty empty 17 7 0 10 -262144 -1 -1 1
1;
#X obj 443 341 r tMean;
#X obj 450 361 r tRange;
#X obj 465 404 r lRange;
#X obj 472 424 r spMean;
#X obj 480 443 r spRange;
#X obj 489 462 r stMean;
#X obj 458 383 r lMean;
#X obj 494 481 r stRange;
#X obj 502 499 r volMean;
#X obj 509 518 r volRange;
#X obj 517 537 r panning;
#X obj 526 555 r octaveLock;
#X obj 446 317 tgl 15 0 empty empty empty 17 7 0 10 -262144 -1 -1 1
1;
#X obj 619 340 r tMean;
#X obj 626 360 r tRange;
#X obj 641 403 r lRange;
#X obj 648 423 r spMean;
#X obj 656 442 r spRange;
#X obj 665 461 r stMean;
#X obj 634 382 r lMean;
#X obj 670 480 r stRange;
#X obj 678 498 r volMean;
#X obj 685 517 r volRange;
#X obj 693 536 r panning;
#X obj 702 554 r octaveLock;
#X obj 622 316 tgl 15 0 empty empty empty 17 7 0 10 -262144 -1 -1 1
1;
#X obj 783 343 r tMean;
#X obj 790 363 r tRange;
#X obj 805 406 r lRange;
#X obj 812 426 r spMean;
#X obj 820 445 r spRange;
#X obj 829 464 r stMean;
#X obj 798 385 r lMean;
#X obj 834 483 r stRange;
#X obj 842 501 r volMean;
#X obj 849 520 r volRange;
#X obj 857 539 r panning;
#X obj 866 557 r octaveLock;
#X obj 786 319 tgl 15 0 empty empty empty 17 7 0 10 -262144 -1 -1 1
1;
#X obj 959 342 r tMean;
#X obj 966 362 r tRange;
#X obj 981 405 r lRange;
#X obj 988 425 r spMean;
#X obj 996 444 r spRange;
#X obj 1005 463 r stMean;
#X obj 974 384 r lMean;
#X obj 1010 482 r stRange;
#X obj 1018 500 r volMean;
#X obj 1025 519 r volRange;
#X obj 1033 538 r panning;
#X obj 1042 556 r octaveLock;
#X obj 962 318 tgl 15 0 empty empty empty 17 7 0 10 -262144 -1 -1 1
1;
#X obj 421 645 outlet~;
#X obj 352 646 outlet~;
#X obj 278 286 anOnlineGrain;
#X obj 442 289 anOnlineGrain;
#X obj 618 288 anOnlineGrain;
#X obj 446 576 anOnlineGrain;
#X obj 622 575 anOnlineGrain;
#X obj 786 578 anOnlineGrain;
#X obj 962 577 anOnlineGrain;
#X connect 0 0 15 0;
#X connect 0 1 28 0;
#X connect 0 2 41 0;
#X connect 0 3 54 0;
#X connect 0 4 67 0;
#X connect 0 5 80 0;
#X connect 0 6 93 0;
#X connect 0 7 106 0;
#X connect 1 0 0 0;
#X connect 2 0 108 0;
#X connect 2 1 107 0;
#X connect 3 0 2 1;
#X connect 4 0 2 2;
#X connect 5 0 2 4;
#X connect 6 0 2 5;
#X connect 7 0 2 6;
#X connect 8 0 2 7;
#X connect 9 0 2 3;
#X connect 10 0 2 8;
#X connect 11 0 2 9;
#X connect 12 0 2 10;
#X connect 13 0 2 11;
#X connect 14 0 2 12;
#X connect 15 0 2 0;
#X connect 16 0 109 1;
#X connect 17 0 109 2;
#X connect 18 0 109 4;
#X connect 19 0 109 5;
#X connect 20 0 109 6;
#X connect 21 0 109 7;
#X connect 22 0 109 3;
#X connect 23 0 109 8;
#X connect 24 0 109 9;
#X connect 25 0 109 10;
#X connect 26 0 109 11;
#X connect 27 0 109 12;
#X connect 28 0 109 0;
#X connect 29 0 110 1;
#X connect 30 0 110 2;
#X connect 31 0 110 4;
#X connect 32 0 110 5;
#X connect 33 0 110 6;
#X connect 34 0 110 7;
#X connect 35 0 110 3;
#X connect 36 0 110 8;
#X connect 37 0 110 9;
#X connect 38 0 110 10;
#X connect 39 0 110 11;
#X connect 40 0 110 12;
#X connect 41 0 110 0;
#X connect 42 0 111 1;
#X connect 43 0 111 2;
#X connect 44 0 111 4;
#X connect 45 0 111 5;
#X connect 46 0 111 6;
#X connect 47 0 111 7;
#X connect 48 0 111 3;
#X connect 49 0 111 8;
#X connect 50 0 111 9;
#X connect 51 0 111 10;
#X connect 52 0 111 11;
#X connect 53 0 111 12;
#X connect 54 0 111 0;
#X connect 55 0 112 1;
#X connect 56 0 112 2;
#X connect 57 0 112 4;
#X connect 58 0 112 5;
#X connect 59 0 112 6;
#X connect 60 0 112 7;
#X connect 61 0 112 3;
#X connect 62 0 112 8;
#X connect 63 0 112 9;
#X connect 64 0 112 10;
#X connect 65 0 112 11;
#X connect 66 0 112 12;
#X connect 67 0 112 0;
#X connect 68 0 113 1;
#X connect 69 0 113 2;
#X connect 70 0 113 4;
#X connect 71 0 113 5;
#X connect 72 0 113 6;
#X connect 73 0 113 7;
#X connect 74 0 113 3;
#X connect 75 0 113 8;
#X connect 76 0 113 9;
#X connect 77 0 113 10;
#X connect 78 0 113 11;
#X connect 79 0 113 12;
#X connect 80 0 113 0;
#X connect 81 0 114 1;
#X connect 82 0 114 2;
#X connect 83 0 114 4;
#X connect 84 0 114 5;
#X connect 85 0 114 6;
#X connect 86 0 114 7;
#X connect 87 0 114 3;
#X connect 88 0 114 8;
#X connect 89 0 114 9;
#X connect 90 0 114 10;
#X connect 91 0 114 11;
#X connect 92 0 114 12;
#X connect 93 0 114 0;
#X connect 94 0 115 1;
#X connect 95 0 115 2;
#X connect 96 0 115 4;
#X connect 97 0 115 5;
#X connect 98 0 115 6;
#X connect 99 0 115 7;
#X connect 100 0 115 3;
#X connect 101 0 115 8;
#X connect 102 0 115 9;
#X connect 103 0 115 10;
#X connect 104 0 115 11;
#X connect 105 0 115 12;
#X connect 106 0 115 0;
#X connect 109 0 108 0;
#X connect 109 1 107 0;
#X connect 110 0 108 0;
#X connect 110 1 107 0;
#X connect 111 0 108 0;
#X connect 111 1 107 0;
#X connect 112 0 108 0;
#X connect 112 1 107 0;
#X connect 113 0 108 0;
#X connect 113 1 107 0;
#X connect 114 0 108 0;
#X connect 114 1 107 0;
#X connect 115 0 108 0;
#X connect 115 1 107 0;
#X restore 19 370 pd online8grains;
#X obj 19 346 r grainsNum;
#N canvas 0 23 1258 676 online8grains 0;
#N canvas 0 22 1020 608 selector8toggles 0;
#X msg 200 147 1;
#X msg 161 147 0;
#X msg 240 192 1;
#X msg 201 192 0;
#X obj 161 340 tgl 15 0 empty empty empty 17 7 0 10 -262144 -1 -1 1
1;
#X obj 184 340 tgl 15 0 empty empty empty 17 7 0 10 -262144 -1 -1 1
1;
#X obj 206 340 tgl 15 0 empty empty empty 17 7 0 10 -262144 -1 -1 1
1;
#X obj 229 340 tgl 15 0 empty empty empty 17 7 0 10 -262144 -1 -1 1
1;
#X msg 280 238 1;
#X msg 241 238 0;
#X msg 321 286 1;
#X msg 282 286 0;
#X obj 161 125 moses 1;
#X obj 201 170 moses 2;
#X obj 241 216 moses 3;
#X obj 282 264 moses 4;
#X msg 290 149 1;
#X msg 251 149 0;
#X msg 330 194 1;
#X msg 291 194 0;
#X msg 370 240 1;
#X msg 331 240 0;
#X msg 411 288 1;
#X msg 372 288 0;
#X obj 251 127 moses 5;
#X obj 291 172 moses 6;
#X obj 331 218 moses 7;
#X obj 372 266 moses 8;
#X obj 260 340 tgl 15 0 empty empty empty 17 7 0 10 -262144 -1 -1 1
1;
#X obj 283 340 tgl 15 0 empty empty empty 17 7 0 10 -262144 -1 -1 1
1;
#X obj 305 340 tgl 15 0 empty empty empty 17 7 0 10 -262144 -1 -1 0
1;
#X obj 328 340 tgl 15 0 empty empty empty 17 7 0 10 -262144 -1 -1 0
1;
#X obj 295 95 inlet;
#X obj 184 385 outlet;
#X obj 161 362 outlet;
#X obj 229 383 outlet;
#X obj 206 360 outlet;
#X obj 283 384 outlet;
#X obj 260 361 outlet;
#X obj 328 382 outlet;
#X obj 305 359 outlet;
#X connect 0 0 4 0;
#X connect 1 0 4 0;
#X connect 2 0 5 0;
#X connect 3 0 5 0;
#X connect 4 0 34 0;
#X connect 5 0 33 0;
#X connect 6 0 36 0;
#X connect 7 0 35 0;
#X connect 8 0 6 0;
#X connect 9 0 6 0;
#X connect 10 0 7 0;
#X connect 11 0 7 0;
#X connect 12 0 1 0;
#X connect 12 1 0 0;
#X connect 13 0 3 0;
#X connect 13 1 2 0;
#X connect 14 0 9 0;
#X connect 14 1 8 0;
#X connect 15 0 11 0;
#X connect 15 1 10 0;
#X connect 16 0 28 0;
#X connect 17 0 28 0;
#X connect 18 0 29 0;
#X connect 19 0 29 0;
#X connect 20 0 30 0;
#X connect 21 0 30 0;
#X connect 22 0 31 0;
#X connect 23 0 31 0;
#X connect 24 0 17 0;
#X connect 24 1 16 0;
#X connect 25 0 19 0;
#X connect 25 1 18 0;
#X connect 26 0 21 0;
#X connect 26 1 20 0;
#X connect 27 0 23 0;
#X connect 27 1 22 0;
#X connect 28 0 38 0;
#X connect 29 0 37 0;
#X connect 30 0 40 0;
#X connect 31 0 39 0;
#X connect 32 0 12 0;
#X connect 32 0 13 0;
#X connect 32 0 14 0;
#X connect 32 0 15 0;
#X connect 32 0 24 0;
#X connect 32 0 25 0;
#X connect 32 0 26 0;
#X connect 32 0 27 0;
#X restore 956 48 pd selector8toggles;
#X obj 956 25 inlet;
#X obj 99 52 r tMean;
#X obj 106 72 r tRange;
#X obj 121 115 r lRange;
#X obj 128 135 r spMean;
#X obj 136 154 r spRange;
#X obj 145 173 r stMean;
#X obj 114 94 r lMean;
#X obj 150 192 r stRange;
#X obj 158 210 r volMean;
#X obj 165 229 r volRange;
#X obj 173 248 r panning;
#X obj 182 266 r octaveLock;
#X obj 102 28 tgl 15 0 empty empty empty 17 7 0 10 -262144 -1 -1 1
1;
#X obj 275 51 r tMean;
#X obj 282 71 r tRange;
#X obj 297 114 r lRange;
#X obj 304 134 r spMean;
#X obj 312 153 r spRange;
#X obj 321 172 r stMean;
#X obj 290 93 r lMean;
#X obj 326 191 r stRange;
#X obj 334 209 r volMean;
#X obj 341 228 r volRange;
#X obj 349 247 r panning;
#X obj 358 265 r octaveLock;
#X obj 278 27 tgl 15 0 empty empty empty 17 7 0 10 -262144 -1 -1 1
1;
#X obj 439 54 r tMean;
#X obj 446 74 r tRange;
#X obj 461 117 r lRange;
#X obj 468 137 r spMean;
#X obj 476 156 r spRange;
#X obj 485 175 r stMean;
#X obj 454 96 r lMean;
#X obj 490 194 r stRange;
#X obj 498 212 r volMean;
#X obj 505 231 r volRange;
#X obj 513 250 r panning;
#X obj 522 268 r octaveLock;
#X obj 442 30 tgl 15 0 empty empty empty 17 7 0 10 -262144 -1 -1 1
1;
#X obj 615 53 r tMean;
#X obj 622 73 r tRange;
#X obj 637 116 r lRange;
#X obj 644 136 r spMean;
#X obj 652 155 r spRange;
#X obj 661 174 r stMean;
#X obj 630 95 r lMean;
#X obj 666 193 r stRange;
#X obj 674 211 r volMean;
#X obj 681 230 r volRange;
#X obj 689 249 r panning;
#X obj 698 267 r octaveLock;
#X obj 618 29 tgl 15 0 empty empty empty 17 7 0 10 -262144 -1 -1 1
1;
#X obj 443 341 r tMean;
#X obj 450 361 r tRange;
#X obj 465 404 r lRange;
#X obj 472 424 r spMean;
#X obj 480 443 r spRange;
#X obj 489 462 r stMean;
#X obj 458 383 r lMean;
#X obj 494 481 r stRange;
#X obj 502 499 r volMean;
#X obj 509 518 r volRange;
#X obj 517 537 r panning;
#X obj 526 555 r octaveLock;
#X obj 446 317 tgl 15 0 empty empty empty 17 7 0 10 -262144 -1 -1 1
1;
#X obj 619 340 r tMean;
#X obj 626 360 r tRange;
#X obj 641 403 r lRange;
#X obj 648 423 r spMean;
#X obj 656 442 r spRange;
#X obj 665 461 r stMean;
#X obj 634 382 r lMean;
#X obj 670 480 r stRange;
#X obj 678 498 r volMean;
#X obj 685 517 r volRange;
#X obj 693 536 r panning;
#X obj 702 554 r octaveLock;
#X obj 622 316 tgl 15 0 empty empty empty 17 7 0 10 -262144 -1 -1 1
1;
#X obj 783 343 r tMean;
#X obj 790 363 r tRange;
#X obj 805 406 r lRange;
#X obj 812 426 r spMean;
#X obj 820 445 r spRange;
#X obj 829 464 r stMean;
#X obj 798 385 r lMean;
#X obj 834 483 r stRange;
#X obj 842 501 r volMean;
#X obj 849 520 r volRange;
#X obj 857 539 r panning;
#X obj 866 557 r octaveLock;
#X obj 786 319 tgl 15 0 empty empty empty 17 7 0 10 -262144 -1 -1 0
1;
#X obj 959 342 r tMean;
#X obj 966 362 r tRange;
#X obj 981 405 r lRange;
#X obj 988 425 r spMean;
#X obj 996 444 r spRange;
#X obj 1005 463 r stMean;
#X obj 974 384 r lMean;
#X obj 1010 482 r stRange;
#X obj 1018 500 r volMean;
#X obj 1025 519 r volRange;
#X obj 1033 538 r panning;
#X obj 1042 556 r octaveLock;
#X obj 962 318 tgl 15 0 empty empty empty 17 7 0 10 -262144 -1 -1 0
1;
#X obj 421 645 outlet~;
#X obj 352 646 outlet~;
#X obj 102 287 anOnlineGrain;
#X obj 278 286 anOnlineGrain;
#X obj 442 289 anOnlineGrain;
#X obj 618 288 anOnlineGrain;
#X obj 446 576 anOnlineGrain;
#X obj 622 575 anOnlineGrain;
#X obj 786 578 anOnlineGrain;
#X obj 962 577 anOnlineGrain;
#X connect 0 0 14 0;
#X connect 0 1 27 0;
#X connect 0 2 40 0;
#X connect 0 3 53 0;
#X connect 0 4 66 0;
#X connect 0 5 79 0;
#X connect 0 6 92 0;
#X connect 0 7 105 0;
#X connect 1 0 0 0;
#X connect 2 0 108 1;
#X connect 3 0 108 2;
#X connect 4 0 108 4;
#X connect 5 0 108 5;
#X connect 6 0 108 6;
#X connect 7 0 108 7;
#X connect 8 0 108 3;
#X connect 9 0 108 8;
#X connect 10 0 108 9;
#X connect 11 0 108 10;
#X connect 12 0 108 11;
#X connect 13 0 108 12;
#X connect 14 0 108 0;
#X connect 15 0 109 1;
#X connect 16 0 109 2;
#X connect 17 0 109 4;
#X connect 18 0 109 5;
#X connect 19 0 109 6;
#X connect 20 0 109 7;
#X connect 21 0 109 3;
#X connect 22 0 109 8;
#X connect 23 0 109 9;
#X connect 24 0 109 10;
#X connect 25 0 109 11;
#X connect 26 0 109 12;
#X connect 27 0 109 0;
#X connect 28 0 110 1;
#X connect 29 0 110 2;
#X connect 30 0 110 4;
#X connect 31 0 110 5;
#X connect 32 0 110 6;
#X connect 33 0 110 7;
#X connect 34 0 110 3;
#X connect 35 0 110 8;
#X connect 36 0 110 9;
#X connect 37 0 110 10;
#X connect 38 0 110 11;
#X connect 39 0 110 12;
#X connect 40 0 110 0;
#X connect 41 0 111 1;
#X connect 42 0 111 2;
#X connect 43 0 111 4;
#X connect 44 0 111 5;
#X connect 45 0 111 6;
#X connect 46 0 111 7;
#X connect 47 0 111 3;
#X connect 48 0 111 8;
#X connect 49 0 111 9;
#X connect 50 0 111 10;
#X connect 51 0 111 11;
#X connect 52 0 111 12;
#X connect 53 0 111 0;
#X connect 54 0 112 1;
#X connect 55 0 112 2;
#X connect 56 0 112 4;
#X connect 57 0 112 5;
#X connect 58 0 112 6;
#X connect 59 0 112 7;
#X connect 60 0 112 3;
#X connect 61 0 112 8;
#X connect 62 0 112 9;
#X connect 63 0 112 10;
#X connect 64 0 112 11;
#X connect 65 0 112 12;
#X connect 66 0 112 0;
#X connect 67 0 113 1;
#X connect 68 0 113 2;
#X connect 69 0 113 4;
#X connect 70 0 113 5;
#X connect 71 0 113 6;
#X connect 72 0 113 7;
#X connect 73 0 113 3;
#X connect 74 0 113 8;
#X connect 75 0 113 9;
#X connect 76 0 113 10;
#X connect 77 0 113 11;
#X connect 78 0 113 12;
#X connect 79 0 113 0;
#X connect 80 0 114 1;
#X connect 81 0 114 2;
#X connect 82 0 114 4;
#X connect 83 0 114 5;
#X connect 84 0 114 6;
#X connect 85 0 114 7;
#X connect 86 0 114 3;
#X connect 87 0 114 8;
#X connect 88 0 114 9;
#X connect 89 0 114 10;
#X connect 90 0 114 11;
#X connect 91 0 114 12;
#X connect 92 0 114 0;
#X connect 93 0 115 1;
#X connect 94 0 115 2;
#X connect 95 0 115 4;
#X connect 96 0 115 5;
#X connect 97 0 115 6;
#X connect 98 0 115 7;
#X connect 99 0 115 3;
#X connect 100 0 115 8;
#X connect 101 0 115 9;
#X connect 102 0 115 10;
#X connect 103 0 115 11;
#X connect 104 0 115 12;
#X connect 105 0 115 0;
#X connect 108 0 107 0;
#X connect 108 1 106 0;
#X connect 109 0 107 0;
#X connect 109 1 106 0;
#X connect 110 0 107 0;
#X connect 110 1 106 0;
#X connect 111 0 107 0;
#X connect 111 1 106 0;
#X connect 112 0 107 0;
#X connect 112 1 106 0;
#X connect 113 0 107 0;
#X connect 113 1 106 0;
#X connect 114 0 107 0;
#X connect 114 1 106 0;
#X connect 115 0 107 0;
#X connect 115 1 106 0;
#X restore 128 368 pd online8grains;
#X obj 128 323 r grainsNum;
#N canvas 0 23 1258 676 online8grains 0;
#N canvas 0 22 1020 608 selector8toggles 0;
#X msg 200 147 1;
#X msg 161 147 0;
#X msg 240 192 1;
#X msg 201 192 0;
#X obj 161 340 tgl 15 0 empty empty empty 17 7 0 10 -262144 -1 -1 0
1;
#X obj 184 340 tgl 15 0 empty empty empty 17 7 0 10 -262144 -1 -1 0
1;
#X obj 206 340 tgl 15 0 empty empty empty 17 7 0 10 -262144 -1 -1 0
1;
#X obj 229 340 tgl 15 0 empty empty empty 17 7 0 10 -262144 -1 -1 0
1;
#X msg 280 238 1;
#X msg 241 238 0;
#X msg 321 286 1;
#X msg 282 286 0;
#X obj 161 125 moses 1;
#X obj 201 170 moses 2;
#X obj 241 216 moses 3;
#X obj 282 264 moses 4;
#X msg 290 149 1;
#X msg 251 149 0;
#X msg 330 194 1;
#X msg 291 194 0;
#X msg 370 240 1;
#X msg 331 240 0;
#X msg 411 288 1;
#X msg 372 288 0;
#X obj 251 127 moses 5;
#X obj 291 172 moses 6;
#X obj 331 218 moses 7;
#X obj 372 266 moses 8;
#X obj 260 340 tgl 15 0 empty empty empty 17 7 0 10 -262144 -1 -1 0
1;
#X obj 283 340 tgl 15 0 empty empty empty 17 7 0 10 -262144 -1 -1 0
1;
#X obj 305 340 tgl 15 0 empty empty empty 17 7 0 10 -262144 -1 -1 0
1;
#X obj 328 340 tgl 15 0 empty empty empty 17 7 0 10 -262144 -1 -1 0
1;
#X obj 295 95 inlet;
#X obj 184 385 outlet;
#X obj 161 362 outlet;
#X obj 229 383 outlet;
#X obj 206 360 outlet;
#X obj 283 384 outlet;
#X obj 260 361 outlet;
#X obj 328 382 outlet;
#X obj 305 359 outlet;
#X connect 0 0 4 0;
#X connect 1 0 4 0;
#X connect 2 0 5 0;
#X connect 3 0 5 0;
#X connect 4 0 34 0;
#X connect 5 0 33 0;
#X connect 6 0 36 0;
#X connect 7 0 35 0;
#X connect 8 0 6 0;
#X connect 9 0 6 0;
#X connect 10 0 7 0;
#X connect 11 0 7 0;
#X connect 12 0 1 0;
#X connect 12 1 0 0;
#X connect 13 0 3 0;
#X connect 13 1 2 0;
#X connect 14 0 9 0;
#X connect 14 1 8 0;
#X connect 15 0 11 0;
#X connect 15 1 10 0;
#X connect 16 0 28 0;
#X connect 17 0 28 0;
#X connect 18 0 29 0;
#X connect 19 0 29 0;
#X connect 20 0 30 0;
#X connect 21 0 30 0;
#X connect 22 0 31 0;
#X connect 23 0 31 0;
#X connect 24 0 17 0;
#X connect 24 1 16 0;
#X connect 25 0 19 0;
#X connect 25 1 18 0;
#X connect 26 0 21 0;
#X connect 26 1 20 0;
#X connect 27 0 23 0;
#X connect 27 1 22 0;
#X connect 28 0 38 0;
#X connect 29 0 37 0;
#X connect 30 0 40 0;
#X connect 31 0 39 0;
#X connect 32 0 12 0;
#X connect 32 0 13 0;
#X connect 32 0 14 0;
#X connect 32 0 15 0;
#X connect 32 0 24 0;
#X connect 32 0 25 0;
#X connect 32 0 26 0;
#X connect 32 0 27 0;
#X restore 956 48 pd selector8toggles;
#X obj 956 25 inlet;
#X obj 99 52 r tMean;
#X obj 106 72 r tRange;
#X obj 121 115 r lRange;
#X obj 128 135 r spMean;
#X obj 136 154 r spRange;
#X obj 145 173 r stMean;
#X obj 114 94 r lMean;
#X obj 150 192 r stRange;
#X obj 158 210 r volMean;
#X obj 165 229 r volRange;
#X obj 173 248 r panning;
#X obj 182 266 r octaveLock;
#X obj 102 28 tgl 15 0 empty empty empty 17 7 0 10 -262144 -1 -1 0
1;
#X obj 275 51 r tMean;
#X obj 282 71 r tRange;
#X obj 297 114 r lRange;
#X obj 304 134 r spMean;
#X obj 312 153 r spRange;
#X obj 321 172 r stMean;
#X obj 290 93 r lMean;
#X obj 326 191 r stRange;
#X obj 334 209 r volMean;
#X obj 341 228 r volRange;
#X obj 349 247 r panning;
#X obj 358 265 r octaveLock;
#X obj 278 27 tgl 15 0 empty empty empty 17 7 0 10 -262144 -1 -1 0
1;
#X obj 439 54 r tMean;
#X obj 446 74 r tRange;
#X obj 461 117 r lRange;
#X obj 468 137 r spMean;
#X obj 476 156 r spRange;
#X obj 485 175 r stMean;
#X obj 454 96 r lMean;
#X obj 490 194 r stRange;
#X obj 498 212 r volMean;
#X obj 505 231 r volRange;
#X obj 513 250 r panning;
#X obj 522 268 r octaveLock;
#X obj 442 30 tgl 15 0 empty empty empty 17 7 0 10 -262144 -1 -1 0
1;
#X obj 615 53 r tMean;
#X obj 622 73 r tRange;
#X obj 637 116 r lRange;
#X obj 644 136 r spMean;
#X obj 652 155 r spRange;
#X obj 661 174 r stMean;
#X obj 630 95 r lMean;
#X obj 666 193 r stRange;
#X obj 674 211 r volMean;
#X obj 681 230 r volRange;
#X obj 689 249 r panning;
#X obj 698 267 r octaveLock;
#X obj 618 29 tgl 15 0 empty empty empty 17 7 0 10 -262144 -1 -1 0
1;
#X obj 443 341 r tMean;
#X obj 450 361 r tRange;
#X obj 465 404 r lRange;
#X obj 472 424 r spMean;
#X obj 480 443 r spRange;
#X obj 489 462 r stMean;
#X obj 458 383 r lMean;
#X obj 494 481 r stRange;
#X obj 502 499 r volMean;
#X obj 509 518 r volRange;
#X obj 517 537 r panning;
#X obj 526 555 r octaveLock;
#X obj 446 317 tgl 15 0 empty empty empty 17 7 0 10 -262144 -1 -1 0
1;
#X obj 619 340 r tMean;
#X obj 626 360 r tRange;
#X obj 641 403 r lRange;
#X obj 648 423 r spMean;
#X obj 656 442 r spRange;
#X obj 665 461 r stMean;
#X obj 634 382 r lMean;
#X obj 670 480 r stRange;
#X obj 678 498 r volMean;
#X obj 685 517 r volRange;
#X obj 693 536 r panning;
#X obj 702 554 r octaveLock;
#X obj 622 316 tgl 15 0 empty empty empty 17 7 0 10 -262144 -1 -1 0
1;
#X obj 783 343 r tMean;
#X obj 790 363 r tRange;
#X obj 805 406 r lRange;
#X obj 812 426 r spMean;
#X obj 820 445 r spRange;
#X obj 829 464 r stMean;
#X obj 798 385 r lMean;
#X obj 834 483 r stRange;
#X obj 842 501 r volMean;
#X obj 849 520 r volRange;
#X obj 857 539 r panning;
#X obj 866 557 r octaveLock;
#X obj 786 319 tgl 15 0 empty empty empty 17 7 0 10 -262144 -1 -1 0
1;
#X obj 959 342 r tMean;
#X obj 966 362 r tRange;
#X obj 981 405 r lRange;
#X obj 988 425 r spMean;
#X obj 996 444 r spRange;
#X obj 1005 463 r stMean;
#X obj 974 384 r lMean;
#X obj 1010 482 r stRange;
#X obj 1018 500 r volMean;
#X obj 1025 519 r volRange;
#X obj 1033 538 r panning;
#X obj 1042 556 r octaveLock;
#X obj 962 318 tgl 15 0 empty empty empty 17 7 0 10 -262144 -1 -1 0
1;
#X obj 421 645 outlet~;
#X obj 352 646 outlet~;
#X obj 102 287 anOnlineGrain;
#X obj 278 286 anOnlineGrain;
#X obj 442 289 anOnlineGrain;
#X obj 618 288 anOnlineGrain;
#X obj 446 576 anOnlineGrain;
#X obj 622 575 anOnlineGrain;
#X obj 786 578 anOnlineGrain;
#X obj 962 577 anOnlineGrain;
#X connect 0 0 14 0;
#X connect 0 1 27 0;
#X connect 0 2 40 0;
#X connect 0 3 53 0;
#X connect 0 4 66 0;
#X connect 0 5 79 0;
#X connect 0 6 92 0;
#X connect 0 7 105 0;
#X connect 1 0 0 0;
#X connect 2 0 108 1;
#X connect 3 0 108 2;
#X connect 4 0 108 4;
#X connect 5 0 108 5;
#X connect 6 0 108 6;
#X connect 7 0 108 7;
#X connect 8 0 108 3;
#X connect 9 0 108 8;
#X connect 10 0 108 9;
#X connect 11 0 108 10;
#X connect 12 0 108 11;
#X connect 13 0 108 12;
#X connect 14 0 108 0;
#X connect 15 0 109 1;
#X connect 16 0 109 2;
#X connect 17 0 109 4;
#X connect 18 0 109 5;
#X connect 19 0 109 6;
#X connect 20 0 109 7;
#X connect 21 0 109 3;
#X connect 22 0 109 8;
#X connect 23 0 109 9;
#X connect 24 0 109 10;
#X connect 25 0 109 11;
#X connect 26 0 109 12;
#X connect 27 0 109 0;
#X connect 28 0 110 1;
#X connect 29 0 110 2;
#X connect 30 0 110 4;
#X connect 31 0 110 5;
#X connect 32 0 110 6;
#X connect 33 0 110 7;
#X connect 34 0 110 3;
#X connect 35 0 110 8;
#X connect 36 0 110 9;
#X connect 37 0 110 10;
#X connect 38 0 110 11;
#X connect 39 0 110 12;
#X connect 40 0 110 0;
#X connect 41 0 111 1;
#X connect 42 0 111 2;
#X connect 43 0 111 4;
#X connect 44 0 111 5;
#X connect 45 0 111 6;
#X connect 46 0 111 7;
#X connect 47 0 111 3;
#X connect 48 0 111 8;
#X connect 49 0 111 9;
#X connect 50 0 111 10;
#X connect 51 0 111 11;
#X connect 52 0 111 12;
#X connect 53 0 111 0;
#X connect 54 0 112 1;
#X connect 55 0 112 2;
#X connect 56 0 112 4;
#X connect 57 0 112 5;
#X connect 58 0 112 6;
#X connect 59 0 112 7;
#X connect 60 0 112 3;
#X connect 61 0 112 8;
#X connect 62 0 112 9;
#X connect 63 0 112 10;
#X connect 64 0 112 11;
#X connect 65 0 112 12;
#X connect 66 0 112 0;
#X connect 67 0 113 1;
#X connect 68 0 113 2;
#X connect 69 0 113 4;
#X connect 70 0 113 5;
#X connect 71 0 113 6;
#X connect 72 0 113 7;
#X connect 73 0 113 3;
#X connect 74 0 113 8;
#X connect 75 0 113 9;
#X connect 76 0 113 10;
#X connect 77 0 113 11;
#X connect 78 0 113 12;
#X connect 79 0 113 0;
#X connect 80 0 114 1;
#X connect 81 0 114 2;
#X connect 82 0 114 4;
#X connect 83 0 114 5;
#X connect 84 0 114 6;
#X connect 85 0 114 7;
#X connect 86 0 114 3;
#X connect 87 0 114 8;
#X connect 88 0 114 9;
#X connect 89 0 114 10;
#X connect 90 0 114 11;
#X connect 91 0 114 12;
#X connect 92 0 114 0;
#X connect 93 0 115 1;
#X connect 94 0 115 2;
#X connect 95 0 115 4;
#X connect 96 0 115 5;
#X connect 97 0 115 6;
#X connect 98 0 115 7;
#X connect 99 0 115 3;
#X connect 100 0 115 8;
#X connect 101 0 115 9;
#X connect 102 0 115 10;
#X connect 103 0 115 11;
#X connect 104 0 115 12;
#X connect 105 0 115 0;
#X connect 108 0 107 0;
#X connect 108 1 106 0;
#X connect 109 0 107 0;
#X connect 109 1 106 0;
#X connect 110 0 107 0;
#X connect 110 1 106 0;
#X connect 111 0 107 0;
#X connect 111 1 106 0;
#X connect 112 0 107 0;
#X connect 112 1 106 0;
#X connect 113 0 107 0;
#X connect 113 1 106 0;
#X connect 114 0 107 0;
#X connect 114 1 106 0;
#X connect 115 0 107 0;
#X connect 115 1 106 0;
#X restore 242 367 pd online8grains;
#X obj 242 322 r grainsNum;
#N canvas 0 23 1258 676 online8grains 0;
#N canvas 0 22 1020 608 selector8toggles 0;
#X msg 200 147 1;
#X msg 161 147 0;
#X msg 240 192 1;
#X msg 201 192 0;
#X obj 161 340 tgl 15 0 empty empty empty 17 7 0 10 -262144 -1 -1 0
1;
#X obj 184 340 tgl 15 0 empty empty empty 17 7 0 10 -262144 -1 -1 0
1;
#X obj 206 340 tgl 15 0 empty empty empty 17 7 0 10 -262144 -1 -1 0
1;
#X obj 229 340 tgl 15 0 empty empty empty 17 7 0 10 -262144 -1 -1 0
1;
#X msg 280 238 1;
#X msg 241 238 0;
#X msg 321 286 1;
#X msg 282 286 0;
#X obj 161 125 moses 1;
#X obj 201 170 moses 2;
#X obj 241 216 moses 3;
#X obj 282 264 moses 4;
#X msg 290 149 1;
#X msg 251 149 0;
#X msg 330 194 1;
#X msg 291 194 0;
#X msg 370 240 1;
#X msg 331 240 0;
#X msg 411 288 1;
#X msg 372 288 0;
#X obj 251 127 moses 5;
#X obj 291 172 moses 6;
#X obj 331 218 moses 7;
#X obj 372 266 moses 8;
#X obj 260 340 tgl 15 0 empty empty empty 17 7 0 10 -262144 -1 -1 0
1;
#X obj 283 340 tgl 15 0 empty empty empty 17 7 0 10 -262144 -1 -1 0
1;
#X obj 305 340 tgl 15 0 empty empty empty 17 7 0 10 -262144 -1 -1 0
1;
#X obj 328 340 tgl 15 0 empty empty empty 17 7 0 10 -262144 -1 -1 0
1;
#X obj 295 95 inlet;
#X obj 184 385 outlet;
#X obj 161 362 outlet;
#X obj 229 383 outlet;
#X obj 206 360 outlet;
#X obj 283 384 outlet;
#X obj 260 361 outlet;
#X obj 328 382 outlet;
#X obj 305 359 outlet;
#X connect 0 0 4 0;
#X connect 1 0 4 0;
#X connect 2 0 5 0;
#X connect 3 0 5 0;
#X connect 4 0 34 0;
#X connect 5 0 33 0;
#X connect 6 0 36 0;
#X connect 7 0 35 0;
#X connect 8 0 6 0;
#X connect 9 0 6 0;
#X connect 10 0 7 0;
#X connect 11 0 7 0;
#X connect 12 0 1 0;
#X connect 12 1 0 0;
#X connect 13 0 3 0;
#X connect 13 1 2 0;
#X connect 14 0 9 0;
#X connect 14 1 8 0;
#X connect 15 0 11 0;
#X connect 15 1 10 0;
#X connect 16 0 28 0;
#X connect 17 0 28 0;
#X connect 18 0 29 0;
#X connect 19 0 29 0;
#X connect 20 0 30 0;
#X connect 21 0 30 0;
#X connect 22 0 31 0;
#X connect 23 0 31 0;
#X connect 24 0 17 0;
#X connect 24 1 16 0;
#X connect 25 0 19 0;
#X connect 25 1 18 0;
#X connect 26 0 21 0;
#X connect 26 1 20 0;
#X connect 27 0 23 0;
#X connect 27 1 22 0;
#X connect 28 0 38 0;
#X connect 29 0 37 0;
#X connect 30 0 40 0;
#X connect 31 0 39 0;
#X connect 32 0 12 0;
#X connect 32 0 13 0;
#X connect 32 0 14 0;
#X connect 32 0 15 0;
#X connect 32 0 24 0;
#X connect 32 0 25 0;
#X connect 32 0 26 0;
#X connect 32 0 27 0;
#X restore 956 48 pd selector8toggles;
#X obj 956 25 inlet;
#X obj 99 52 r tMean;
#X obj 106 72 r tRange;
#X obj 121 115 r lRange;
#X obj 128 135 r spMean;
#X obj 136 154 r spRange;
#X obj 145 173 r stMean;
#X obj 114 94 r lMean;
#X obj 150 192 r stRange;
#X obj 158 210 r volMean;
#X obj 165 229 r volRange;
#X obj 173 248 r panning;
#X obj 182 266 r octaveLock;
#X obj 102 28 tgl 15 0 empty empty empty 17 7 0 10 -262144 -1 -1 0
1;
#X obj 275 51 r tMean;
#X obj 282 71 r tRange;
#X obj 297 114 r lRange;
#X obj 304 134 r spMean;
#X obj 312 153 r spRange;
#X obj 321 172 r stMean;
#X obj 290 93 r lMean;
#X obj 326 191 r stRange;
#X obj 334 209 r volMean;
#X obj 341 228 r volRange;
#X obj 349 247 r panning;
#X obj 358 265 r octaveLock;
#X obj 278 27 tgl 15 0 empty empty empty 17 7 0 10 -262144 -1 -1 0
1;
#X obj 439 54 r tMean;
#X obj 446 74 r tRange;
#X obj 461 117 r lRange;
#X obj 468 137 r spMean;
#X obj 476 156 r spRange;
#X obj 485 175 r stMean;
#X obj 454 96 r lMean;
#X obj 490 194 r stRange;
#X obj 498 212 r volMean;
#X obj 505 231 r volRange;
#X obj 513 250 r panning;
#X obj 522 268 r octaveLock;
#X obj 442 30 tgl 15 0 empty empty empty 17 7 0 10 -262144 -1 -1 0
1;
#X obj 615 53 r tMean;
#X obj 622 73 r tRange;
#X obj 637 116 r lRange;
#X obj 644 136 r spMean;
#X obj 652 155 r spRange;
#X obj 661 174 r stMean;
#X obj 630 95 r lMean;
#X obj 666 193 r stRange;
#X obj 674 211 r volMean;
#X obj 681 230 r volRange;
#X obj 689 249 r panning;
#X obj 698 267 r octaveLock;
#X obj 618 29 tgl 15 0 empty empty empty 17 7 0 10 -262144 -1 -1 0
1;
#X obj 443 341 r tMean;
#X obj 450 361 r tRange;
#X obj 465 404 r lRange;
#X obj 472 424 r spMean;
#X obj 480 443 r spRange;
#X obj 489 462 r stMean;
#X obj 458 383 r lMean;
#X obj 494 481 r stRange;
#X obj 502 499 r volMean;
#X obj 509 518 r volRange;
#X obj 517 537 r panning;
#X obj 526 555 r octaveLock;
#X obj 446 317 tgl 15 0 empty empty empty 17 7 0 10 -262144 -1 -1 0
1;
#X obj 619 340 r tMean;
#X obj 626 360 r tRange;
#X obj 641 403 r lRange;
#X obj 648 423 r spMean;
#X obj 656 442 r spRange;
#X obj 665 461 r stMean;
#X obj 634 382 r lMean;
#X obj 670 480 r stRange;
#X obj 678 498 r volMean;
#X obj 685 517 r volRange;
#X obj 693 536 r panning;
#X obj 702 554 r octaveLock;
#X obj 622 316 tgl 15 0 empty empty empty 17 7 0 10 -262144 -1 -1 0
1;
#X obj 783 343 r tMean;
#X obj 790 363 r tRange;
#X obj 805 406 r lRange;
#X obj 812 426 r spMean;
#X obj 820 445 r spRange;
#X obj 829 464 r stMean;
#X obj 798 385 r lMean;
#X obj 834 483 r stRange;
#X obj 842 501 r volMean;
#X obj 849 520 r volRange;
#X obj 857 539 r panning;
#X obj 866 557 r octaveLock;
#X obj 786 319 tgl 15 0 empty empty empty 17 7 0 10 -262144 -1 -1 0
1;
#X obj 959 342 r tMean;
#X obj 966 362 r tRange;
#X obj 981 405 r lRange;
#X obj 988 425 r spMean;
#X obj 996 444 r spRange;
#X obj 1005 463 r stMean;
#X obj 974 384 r lMean;
#X obj 1010 482 r stRange;
#X obj 1018 500 r volMean;
#X obj 1025 519 r volRange;
#X obj 1033 538 r panning;
#X obj 1042 556 r octaveLock;
#X obj 962 318 tgl 15 0 empty empty empty 17 7 0 10 -262144 -1 -1 0
1;
#X obj 421 645 outlet~;
#X obj 352 646 outlet~;
#X obj 102 287 anOnlineGrain;
#X obj 278 286 anOnlineGrain;
#X obj 442 289 anOnlineGrain;
#X obj 618 288 anOnlineGrain;
#X obj 446 576 anOnlineGrain;
#X obj 622 575 anOnlineGrain;
#X obj 786 578 anOnlineGrain;
#X obj 962 577 anOnlineGrain;
#X connect 0 0 14 0;
#X connect 0 1 27 0;
#X connect 0 2 40 0;
#X connect 0 3 53 0;
#X connect 0 4 66 0;
#X connect 0 5 79 0;
#X connect 0 6 92 0;
#X connect 0 7 105 0;
#X connect 1 0 0 0;
#X connect 2 0 108 1;
#X connect 3 0 108 2;
#X connect 4 0 108 4;
#X connect 5 0 108 5;
#X connect 6 0 108 6;
#X connect 7 0 108 7;
#X connect 8 0 108 3;
#X connect 9 0 108 8;
#X connect 10 0 108 9;
#X connect 11 0 108 10;
#X connect 12 0 108 11;
#X connect 13 0 108 12;
#X connect 14 0 108 0;
#X connect 15 0 109 1;
#X connect 16 0 109 2;
#X connect 17 0 109 4;
#X connect 18 0 109 5;
#X connect 19 0 109 6;
#X connect 20 0 109 7;
#X connect 21 0 109 3;
#X connect 22 0 109 8;
#X connect 23 0 109 9;
#X connect 24 0 109 10;
#X connect 25 0 109 11;
#X connect 26 0 109 12;
#X connect 27 0 109 0;
#X connect 28 0 110 1;
#X connect 29 0 110 2;
#X connect 30 0 110 4;
#X connect 31 0 110 5;
#X connect 32 0 110 6;
#X connect 33 0 110 7;
#X connect 34 0 110 3;
#X connect 35 0 110 8;
#X connect 36 0 110 9;
#X connect 37 0 110 10;
#X connect 38 0 110 11;
#X connect 39 0 110 12;
#X connect 40 0 110 0;
#X connect 41 0 111 1;
#X connect 42 0 111 2;
#X connect 43 0 111 4;
#X connect 44 0 111 5;
#X connect 45 0 111 6;
#X connect 46 0 111 7;
#X connect 47 0 111 3;
#X connect 48 0 111 8;
#X connect 49 0 111 9;
#X connect 50 0 111 10;
#X connect 51 0 111 11;
#X connect 52 0 111 12;
#X connect 53 0 111 0;
#X connect 54 0 112 1;
#X connect 55 0 112 2;
#X connect 56 0 112 4;
#X connect 57 0 112 5;
#X connect 58 0 112 6;
#X connect 59 0 112 7;
#X connect 60 0 112 3;
#X connect 61 0 112 8;
#X connect 62 0 112 9;
#X connect 63 0 112 10;
#X connect 64 0 112 11;
#X connect 65 0 112 12;
#X connect 66 0 112 0;
#X connect 67 0 113 1;
#X connect 68 0 113 2;
#X connect 69 0 113 4;
#X connect 70 0 113 5;
#X connect 71 0 113 6;
#X connect 72 0 113 7;
#X connect 73 0 113 3;
#X connect 74 0 113 8;
#X connect 75 0 113 9;
#X connect 76 0 113 10;
#X connect 77 0 113 11;
#X connect 78 0 113 12;
#X connect 79 0 113 0;
#X connect 80 0 114 1;
#X connect 81 0 114 2;
#X connect 82 0 114 4;
#X connect 83 0 114 5;
#X connect 84 0 114 6;
#X connect 85 0 114 7;
#X connect 86 0 114 3;
#X connect 87 0 114 8;
#X connect 88 0 114 9;
#X connect 89 0 114 10;
#X connect 90 0 114 11;
#X connect 91 0 114 12;
#X connect 92 0 114 0;
#X connect 93 0 115 1;
#X connect 94 0 115 2;
#X connect 95 0 115 4;
#X connect 96 0 115 5;
#X connect 97 0 115 6;
#X connect 98 0 115 7;
#X connect 99 0 115 3;
#X connect 100 0 115 8;
#X connect 101 0 115 9;
#X connect 102 0 115 10;
#X connect 103 0 115 11;
#X connect 104 0 115 12;
#X connect 105 0 115 0;
#X connect 108 0 107 0;
#X connect 108 1 106 0;
#X connect 109 0 107 0;
#X connect 109 1 106 0;
#X connect 110 0 107 0;
#X connect 110 1 106 0;
#X connect 111 0 107 0;
#X connect 111 1 106 0;
#X connect 112 0 107 0;
#X connect 112 1 106 0;
#X connect 113 0 107 0;
#X connect 113 1 106 0;
#X connect 114 0 107 0;
#X connect 114 1 106 0;
#X connect 115 0 107 0;
#X connect 115 1 106 0;
#X restore 50 449 pd online8grains;
#X obj 50 404 r grainsNum;
#N canvas 0 23 1258 676 online8grains 0;
#N canvas 0 22 1020 608 selector8toggles 0;
#X msg 200 147 1;
#X msg 161 147 0;
#X msg 240 192 1;
#X msg 201 192 0;
#X obj 161 340 tgl 15 0 empty empty empty 17 7 0 10 -262144 -1 -1 0
1;
#X obj 184 340 tgl 15 0 empty empty empty 17 7 0 10 -262144 -1 -1 0
1;
#X obj 206 340 tgl 15 0 empty empty empty 17 7 0 10 -262144 -1 -1 0
1;
#X obj 229 340 tgl 15 0 empty empty empty 17 7 0 10 -262144 -1 -1 0
1;
#X msg 280 238 1;
#X msg 241 238 0;
#X msg 321 286 1;
#X msg 282 286 0;
#X obj 161 125 moses 1;
#X obj 201 170 moses 2;
#X obj 241 216 moses 3;
#X obj 282 264 moses 4;
#X msg 290 149 1;
#X msg 251 149 0;
#X msg 330 194 1;
#X msg 291 194 0;
#X msg 370 240 1;
#X msg 331 240 0;
#X msg 411 288 1;
#X msg 372 288 0;
#X obj 251 127 moses 5;
#X obj 291 172 moses 6;
#X obj 331 218 moses 7;
#X obj 372 266 moses 8;
#X obj 260 340 tgl 15 0 empty empty empty 17 7 0 10 -262144 -1 -1 0
1;
#X obj 283 340 tgl 15 0 empty empty empty 17 7 0 10 -262144 -1 -1 0
1;
#X obj 305 340 tgl 15 0 empty empty empty 17 7 0 10 -262144 -1 -1 0
1;
#X obj 328 340 tgl 15 0 empty empty empty 17 7 0 10 -262144 -1 -1 0
1;
#X obj 295 95 inlet;
#X obj 184 385 outlet;
#X obj 161 362 outlet;
#X obj 229 383 outlet;
#X obj 206 360 outlet;
#X obj 283 384 outlet;
#X obj 260 361 outlet;
#X obj 328 382 outlet;
#X obj 305 359 outlet;
#X connect 0 0 4 0;
#X connect 1 0 4 0;
#X connect 2 0 5 0;
#X connect 3 0 5 0;
#X connect 4 0 34 0;
#X connect 5 0 33 0;
#X connect 6 0 36 0;
#X connect 7 0 35 0;
#X connect 8 0 6 0;
#X connect 9 0 6 0;
#X connect 10 0 7 0;
#X connect 11 0 7 0;
#X connect 12 0 1 0;
#X connect 12 1 0 0;
#X connect 13 0 3 0;
#X connect 13 1 2 0;
#X connect 14 0 9 0;
#X connect 14 1 8 0;
#X connect 15 0 11 0;
#X connect 15 1 10 0;
#X connect 16 0 28 0;
#X connect 17 0 28 0;
#X connect 18 0 29 0;
#X connect 19 0 29 0;
#X connect 20 0 30 0;
#X connect 21 0 30 0;
#X connect 22 0 31 0;
#X connect 23 0 31 0;
#X connect 24 0 17 0;
#X connect 24 1 16 0;
#X connect 25 0 19 0;
#X connect 25 1 18 0;
#X connect 26 0 21 0;
#X connect 26 1 20 0;
#X connect 27 0 23 0;
#X connect 27 1 22 0;
#X connect 28 0 38 0;
#X connect 29 0 37 0;
#X connect 30 0 40 0;
#X connect 31 0 39 0;
#X connect 32 0 12 0;
#X connect 32 0 13 0;
#X connect 32 0 14 0;
#X connect 32 0 15 0;
#X connect 32 0 24 0;
#X connect 32 0 25 0;
#X connect 32 0 26 0;
#X connect 32 0 27 0;
#X restore 956 48 pd selector8toggles;
#X obj 956 25 inlet;
#X obj 99 52 r tMean;
#X obj 106 72 r tRange;
#X obj 121 115 r lRange;
#X obj 128 135 r spMean;
#X obj 136 154 r spRange;
#X obj 145 173 r stMean;
#X obj 114 94 r lMean;
#X obj 150 192 r stRange;
#X obj 158 210 r volMean;
#X obj 165 229 r volRange;
#X obj 173 248 r panning;
#X obj 182 266 r octaveLock;
#X obj 102 28 tgl 15 0 empty empty empty 17 7 0 10 -262144 -1 -1 0
1;
#X obj 275 51 r tMean;
#X obj 282 71 r tRange;
#X obj 297 114 r lRange;
#X obj 304 134 r spMean;
#X obj 312 153 r spRange;
#X obj 321 172 r stMean;
#X obj 290 93 r lMean;
#X obj 326 191 r stRange;
#X obj 334 209 r volMean;
#X obj 341 228 r volRange;
#X obj 349 247 r panning;
#X obj 358 265 r octaveLock;
#X obj 278 27 tgl 15 0 empty empty empty 17 7 0 10 -262144 -1 -1 0
1;
#X obj 439 54 r tMean;
#X obj 446 74 r tRange;
#X obj 461 117 r lRange;
#X obj 468 137 r spMean;
#X obj 476 156 r spRange;
#X obj 485 175 r stMean;
#X obj 454 96 r lMean;
#X obj 490 194 r stRange;
#X obj 498 212 r volMean;
#X obj 505 231 r volRange;
#X obj 513 250 r panning;
#X obj 522 268 r octaveLock;
#X obj 442 30 tgl 15 0 empty empty empty 17 7 0 10 -262144 -1 -1 0
1;
#X obj 615 53 r tMean;
#X obj 622 73 r tRange;
#X obj 637 116 r lRange;
#X obj 644 136 r spMean;
#X obj 652 155 r spRange;
#X obj 661 174 r stMean;
#X obj 630 95 r lMean;
#X obj 666 193 r stRange;
#X obj 674 211 r volMean;
#X obj 681 230 r volRange;
#X obj 689 249 r panning;
#X obj 698 267 r octaveLock;
#X obj 618 29 tgl 15 0 empty empty empty 17 7 0 10 -262144 -1 -1 0
1;
#X obj 443 341 r tMean;
#X obj 450 361 r tRange;
#X obj 465 404 r lRange;
#X obj 472 424 r spMean;
#X obj 480 443 r spRange;
#X obj 489 462 r stMean;
#X obj 458 383 r lMean;
#X obj 494 481 r stRange;
#X obj 502 499 r volMean;
#X obj 509 518 r volRange;
#X obj 517 537 r panning;
#X obj 526 555 r octaveLock;
#X obj 446 317 tgl 15 0 empty empty empty 17 7 0 10 -262144 -1 -1 0
1;
#X obj 619 340 r tMean;
#X obj 626 360 r tRange;
#X obj 641 403 r lRange;
#X obj 648 423 r spMean;
#X obj 656 442 r spRange;
#X obj 665 461 r stMean;
#X obj 634 382 r lMean;
#X obj 670 480 r stRange;
#X obj 678 498 r volMean;
#X obj 685 517 r volRange;
#X obj 693 536 r panning;
#X obj 702 554 r octaveLock;
#X obj 622 316 tgl 15 0 empty empty empty 17 7 0 10 -262144 -1 -1 0
1;
#X obj 783 343 r tMean;
#X obj 790 363 r tRange;
#X obj 805 406 r lRange;
#X obj 812 426 r spMean;
#X obj 820 445 r spRange;
#X obj 829 464 r stMean;
#X obj 798 385 r lMean;
#X obj 834 483 r stRange;
#X obj 842 501 r volMean;
#X obj 849 520 r volRange;
#X obj 857 539 r panning;
#X obj 866 557 r octaveLock;
#X obj 786 319 tgl 15 0 empty empty empty 17 7 0 10 -262144 -1 -1 0
1;
#X obj 959 342 r tMean;
#X obj 966 362 r tRange;
#X obj 981 405 r lRange;
#X obj 988 425 r spMean;
#X obj 996 444 r spRange;
#X obj 1005 463 r stMean;
#X obj 974 384 r lMean;
#X obj 1010 482 r stRange;
#X obj 1018 500 r volMean;
#X obj 1025 519 r volRange;
#X obj 1033 538 r panning;
#X obj 1042 556 r octaveLock;
#X obj 962 318 tgl 15 0 empty empty empty 17 7 0 10 -262144 -1 -1 0
1;
#X obj 421 645 outlet~;
#X obj 352 646 outlet~;
#X obj 102 287 anOnlineGrain;
#X obj 278 286 anOnlineGrain;
#X obj 442 289 anOnlineGrain;
#X obj 618 288 anOnlineGrain;
#X obj 446 576 anOnlineGrain;
#X obj 622 575 anOnlineGrain;
#X obj 786 578 anOnlineGrain;
#X obj 962 577 anOnlineGrain;
#X connect 0 0 14 0;
#X connect 0 1 27 0;
#X connect 0 2 40 0;
#X connect 0 3 53 0;
#X connect 0 4 66 0;
#X connect 0 5 79 0;
#X connect 0 6 92 0;
#X connect 0 7 105 0;
#X connect 1 0 0 0;
#X connect 2 0 108 1;
#X connect 3 0 108 2;
#X connect 4 0 108 4;
#X connect 5 0 108 5;
#X connect 6 0 108 6;
#X connect 7 0 108 7;
#X connect 8 0 108 3;
#X connect 9 0 108 8;
#X connect 10 0 108 9;
#X connect 11 0 108 10;
#X connect 12 0 108 11;
#X connect 13 0 108 12;
#X connect 14 0 108 0;
#X connect 15 0 109 1;
#X connect 16 0 109 2;
#X connect 17 0 109 4;
#X connect 18 0 109 5;
#X connect 19 0 109 6;
#X connect 20 0 109 7;
#X connect 21 0 109 3;
#X connect 22 0 109 8;
#X connect 23 0 109 9;
#X connect 24 0 109 10;
#X connect 25 0 109 11;
#X connect 26 0 109 12;
#X connect 27 0 109 0;
#X connect 28 0 110 1;
#X connect 29 0 110 2;
#X connect 30 0 110 4;
#X connect 31 0 110 5;
#X connect 32 0 110 6;
#X connect 33 0 110 7;
#X connect 34 0 110 3;
#X connect 35 0 110 8;
#X connect 36 0 110 9;
#X connect 37 0 110 10;
#X connect 38 0 110 11;
#X connect 39 0 110 12;
#X connect 40 0 110 0;
#X connect 41 0 111 1;
#X connect 42 0 111 2;
#X connect 43 0 111 4;
#X connect 44 0 111 5;
#X connect 45 0 111 6;
#X connect 46 0 111 7;
#X connect 47 0 111 3;
#X connect 48 0 111 8;
#X connect 49 0 111 9;
#X connect 50 0 111 10;
#X connect 51 0 111 11;
#X connect 52 0 111 12;
#X connect 53 0 111 0;
#X connect 54 0 112 1;
#X connect 55 0 112 2;
#X connect 56 0 112 4;
#X connect 57 0 112 5;
#X connect 58 0 112 6;
#X connect 59 0 112 7;
#X connect 60 0 112 3;
#X connect 61 0 112 8;
#X connect 62 0 112 9;
#X connect 63 0 112 10;
#X connect 64 0 112 11;
#X connect 65 0 112 12;
#X connect 66 0 112 0;
#X connect 67 0 113 1;
#X connect 68 0 113 2;
#X connect 69 0 113 4;
#X connect 70 0 113 5;
#X connect 71 0 113 6;
#X connect 72 0 113 7;
#X connect 73 0 113 3;
#X connect 74 0 113 8;
#X connect 75 0 113 9;
#X connect 76 0 113 10;
#X connect 77 0 113 11;
#X connect 78 0 113 12;
#X connect 79 0 113 0;
#X connect 80 0 114 1;
#X connect 81 0 114 2;
#X connect 82 0 114 4;
#X connect 83 0 114 5;
#X connect 84 0 114 6;
#X connect 85 0 114 7;
#X connect 86 0 114 3;
#X connect 87 0 114 8;
#X connect 88 0 114 9;
#X connect 89 0 114 10;
#X connect 90 0 114 11;
#X connect 91 0 114 12;
#X connect 92 0 114 0;
#X connect 93 0 115 1;
#X connect 94 0 115 2;
#X connect 95 0 115 4;
#X connect 96 0 115 5;
#X connect 97 0 115 6;
#X connect 98 0 115 7;
#X connect 99 0 115 3;
#X connect 100 0 115 8;
#X connect 101 0 115 9;
#X connect 102 0 115 10;
#X connect 103 0 115 11;
#X connect 104 0 115 12;
#X connect 105 0 115 0;
#X connect 108 0 107 0;
#X connect 108 1 106 0;
#X connect 109 0 107 0;
#X connect 109 1 106 0;
#X connect 110 0 107 0;
#X connect 110 1 106 0;
#X connect 111 0 107 0;
#X connect 111 1 106 0;
#X connect 112 0 107 0;
#X connect 112 1 106 0;
#X connect 113 0 107 0;
#X connect 113 1 106 0;
#X connect 114 0 107 0;
#X connect 114 1 106 0;
#X connect 115 0 107 0;
#X connect 115 1 106 0;
#X restore 164 448 pd online8grains;
#X obj 164 403 r grainsNum;
#X obj 164 425 - 32;
#X obj 50 426 - 24;
#X obj 242 344 - 16;
#X obj 128 345 - 8;
#X obj 442 370 hsl 128 15 0 32 0 0 empty empty empty -2 -8 0 10 -262144
-1 -1 5798 1;
#X obj 439 389 int;
#X obj 211 502 r grainsNum;
#X obj 329 504 r grainsNum;
#X obj 308 568 /~ 1;
#X obj 190 566 /~ 1;
#X obj 211 545 max 1;
#X obj 329 547 max 1;
#X obj 211 524 / 8;
#X obj 329 526 / 8;
#X text 68 151 start min;
#X text 155 198 length min;
#X text 447 131 time min;
#X text 494 199 volume min;
#X text 728 150 speed min;
#X obj 234 642 dac~;
#X floatatom 760 204 5 0 0 0 - - -;
#X floatatom 661 131 5 0 0 0 - - -;
#X floatatom 309 182 5 0 0 0 - - -;
#X floatatom 477 177 5 0 0 0 - - -;
#X floatatom 358 219 5 0 0 0 - - -;
#X floatatom 436 243 5 0 0 0 - - -;
#X floatatom 470 350 5 0 0 0 - - -;
#X floatatom 84 173 5 0 0 0 - - -;
#X floatatom 19 245 5 0 0 0 - - -;
#X floatatom 141 250 5 0 0 0 - - -;
#X floatatom 251 192 5 0 0 0 - - -;
#X msg 19 46 0.185;
#X msg 163 53 0.267;
#X msg 87 106 0.11;
#X msg 214 105 0.149;
#X msg 325 67 350.5;
#X msg 390 104 141.7;
#X msg 593 65 2.047;
#X msg 732 111 5.354;
#X msg 543 326 14.61;
#X msg 660 308 2.015;
#X obj 647 27 bng 15 250 50 0 empty empty empty 17 7 0 10 -258113 -1
-1;
#X msg 447 98 1779;
#X msg 385 61 240.6;
#X msg 257 109 0.906;
#X msg 824 134 16;
#X obj 516 24 bng 15 250 50 0 empty empty empty 17 7 0 10 -4160 -1
-1;
#X text 652 11 2 (long grains);
#X text 520 9 1 (short grains);
#X connect 1 0 0 0;
#X connect 2 0 5 0;
#X connect 2 0 89 0;
#X connect 3 0 6 0;
#X connect 3 0 90 0;
#X connect 7 0 25 0;
#X connect 7 0 95 0;
#X connect 8 0 10 0;
#X connect 8 0 96 0;
#X connect 11 0 14 0;
#X connect 11 0 88 0;
#X connect 12 0 15 0;
#X connect 12 0 87 0;
#X connect 16 0 19 0;
#X connect 16 0 94 0;
#X connect 17 0 20 0;
#X connect 17 0 97 0;
#X connect 21 0 11 0;
#X connect 22 0 1 0;
#X connect 22 0 32 0;
#X connect 22 0 49 0;
#X connect 23 0 30 0;
#X connect 23 0 91 0;
#X connect 24 0 31 0;
#X connect 24 0 92 0;
#X connect 27 0 29 0;
#X connect 32 0 37 0;
#X connect 32 0 33 0;
#X connect 32 0 34 0;
#X connect 32 0 35 0;
#X connect 32 0 36 0;
#X connect 33 0 42 0;
#X connect 33 0 47 0;
#X connect 33 0 48 0;
#X connect 34 0 38 0;
#X connect 34 0 43 0;
#X connect 35 0 40 0;
#X connect 35 0 41 0;
#X connect 36 0 45 0;
#X connect 36 0 46 0;
#X connect 37 0 39 0;
#X connect 37 0 44 0;
#X connect 49 0 50 0;
#X connect 51 0 52 0;
#X connect 51 1 52 0;
#X connect 54 0 53 0;
#X connect 56 0 55 0;
#X connect 57 0 76 0;
#X connect 57 1 75 0;
#X connect 58 0 57 0;
#X connect 59 0 76 0;
#X connect 59 1 75 0;
#X connect 60 0 70 0;
#X connect 61 0 76 0;
#X connect 61 1 75 0;
#X connect 62 0 69 0;
#X connect 63 0 76 0;
#X connect 63 1 75 0;
#X connect 64 0 68 0;
#X connect 65 0 76 0;
#X connect 65 1 75 0;
#X connect 66 0 67 0;
#X connect 67 0 65 0;
#X connect 68 0 63 0;
#X connect 69 0 61 0;
#X connect 70 0 59 0;
#X connect 71 0 72 0;
#X connect 71 0 93 0;
#X connect 72 0 56 0;
#X connect 73 0 79 0;
#X connect 74 0 80 0;
#X connect 75 0 86 1;
#X connect 76 0 86 0;
#X connect 77 0 76 1;
#X connect 78 0 75 1;
#X connect 79 0 77 0;
#X connect 80 0 78 0;
#X connect 98 0 16 0;
#X connect 99 0 17 0;
#X connect 100 0 7 0;
#X connect 101 0 8 0;
#X connect 102 0 2 0;
#X connect 103 0 3 0;
#X connect 104 0 11 0;
#X connect 105 0 12 0;
#X connect 106 0 71 0;
#X connect 107 0 71 0;
#X connect 108 0 54 0;
#X connect 108 0 107 0;
#X connect 108 0 109 0;
#X connect 108 0 111 0;
#X connect 108 0 112 0;
#X connect 109 0 3 0;
#X connect 110 0 2 0;
#X connect 111 0 8 0;
#X connect 112 0 12 0;
#X connect 113 0 104 0;
#X connect 113 0 105 0;
#X connect 113 0 103 0;
#X connect 113 0 102 0;
#X connect 113 0 101 0;
#X connect 113 0 100 0;
#X connect 113 0 99 0;
#X connect 113 0 98 0;
#X connect 113 0 106 0;
