#N canvas 0 23 450 300 10;
#X obj 147 209 osc~;
#X obj 147 36 tgl 15 0 empty empty empty 17 7 0 10 -262144 -1 -1 1
1;
#X obj 147 146 f;
#X floatatom 177 189 5 0 0 0 - - -;
#X obj 177 147 + 1.25;
#X obj 281 68 sel 0;
#X obj 128 86 bng 15 250 50 0 empty empty empty 17 7 0 10 -262144 -1
-1;
#X obj 147 60 metro 100;
#X text 123 15 make safe;
#X obj 281 89 - 50;
#X obj 236 76 sel 1;
#X msg 236 97 0;
#X obj 147 230 *~;
#X obj 190 230 hsl 128 15 0 1 0 0 empty empty empty -2 -8 0 10 -262144
-1 -1 12635 1;
#X obj 147 169 + 100;
#X obj 308 178 line;
#X msg 231 193 0;
#X obj 98 240 bng 15 250 50 0 empty empty empty 17 7 0 10 -262144 -1
-1;
#X msg 98 260 0;
#X obj 48 135 noise~;
#X obj 48 156 *~ 0.5;
#X obj 48 177 *~;
#X obj 97 116 tgl 15 0 empty empty empty 17 7 0 10 -262144 -1 -1 0
1;
#X obj 147 280 dac~;
#X obj 147 251 *~ 1;
#X obj 87 191 sel 500;
#X obj 55 62 random 5;
#X obj 55 83 sel 3;
#X msg 308 157 1 9000;
#X connect 0 0 12 0;
#X connect 1 0 5 0;
#X connect 1 0 7 0;
#X connect 1 0 10 0;
#X connect 2 0 4 0;
#X connect 2 0 14 0;
#X connect 4 0 2 1;
#X connect 5 0 9 0;
#X connect 6 0 2 0;
#X connect 6 0 28 0;
#X connect 6 0 26 0;
#X connect 7 0 6 0;
#X connect 9 0 2 0;
#X connect 10 0 11 0;
#X connect 11 0 2 0;
#X connect 11 0 13 0;
#X connect 12 0 24 0;
#X connect 13 0 12 1;
#X connect 14 0 0 0;
#X connect 14 0 3 0;
#X connect 14 0 25 0;
#X connect 15 0 13 0;
#X connect 16 0 13 0;
#X connect 17 0 18 0;
#X connect 18 0 24 1;
#X connect 19 0 20 0;
#X connect 20 0 21 0;
#X connect 21 0 12 0;
#X connect 22 0 21 1;
#X connect 24 0 23 0;
#X connect 24 0 23 1;
#X connect 25 0 17 0;
#X connect 26 0 27 0;
#X connect 27 0 22 0;
#X connect 28 0 15 0;
