#N canvas 3 23 1009 703 10;
#X floatatom 451 52 5 0 0 0 - - -;
#X obj 451 105 *~ 4410;
#X obj 450 27 r readspeed1;
#X obj 451 78 phasor~ 0.09;
#X obj 476 490 *~;
#X obj 440 605 outlet~;
#X obj 230 199 tabread~ \$1-window-length;
#X obj 496 605 outlet~;
#X obj 528 532 *~;
#X obj 430 528 *~;
#X obj 532 201 tabread4~ \$1-pan;
#X obj 496 312 *~ -1;
#X obj 497 335 +~ 1;
#X msg 526 427 1;
#X obj 310 311 phasor~ 1;
#X obj 405 202 tabread4~ \$1-spacing;
#X text 30 537 speed of phasor = speed of window read.. 1hz = 1 window
per sec;
#X text 38 560 NOTE phasor doesn't reset phase on frequency change
though!!;
#X obj 342 402 *~;
#X obj 354 438 tabread4~ window;
#X obj 380 379 *~ 256;
#N canvas 0 0 450 300 (subpatch) 0;
#X array test 8820 float 0;
#X coords 0 1.02 8819 -1.02 200 130 1;
#X restore 775 552 graph;
#X msg 614 629 bang;
#X obj 616 659 tabwrite~ test;
#X obj 237 313 *~ 256;
#X text 611 610 see window sizes;
#X text 98 223 proportion of window table to read through;
#X obj 664 278 inlet~;
#X connect 0 0 3 0;
#X connect 1 0 6 0;
#X connect 1 0 10 0;
#X connect 1 0 15 0;
#X connect 2 0 0 0;
#X connect 3 0 1 0;
#X connect 4 0 8 0;
#X connect 4 0 9 0;
#X connect 6 0 24 0;
#X connect 8 0 7 0;
#X connect 9 0 5 0;
#X connect 10 0 11 0;
#X connect 10 0 8 1;
#X connect 11 0 12 0;
#X connect 12 0 9 1;
#X connect 13 0 4 1;
#X connect 14 0 18 1;
#X connect 15 0 14 0;
#X connect 18 0 19 0;
#X connect 19 0 4 0;
#X connect 19 0 23 0;
#X connect 22 0 23 0;
#X connect 24 0 18 0;
#X connect 27 0 4 1;
